/* XPM */
static char *sea_top_right[] = {
/* columns rows colors chars-per-pixel */
"64 64 4 1 ",
"  c #F77622",
". c #FEAE34",
"X c #639BFF",
"o c white",
/* pixels */
"XXXXXXXXXXXXXXXXXXXXXXXXXXXXXXXXXXXXXXXXXXXXXXXXXXXXXXXXXXXXXXXX",
"XXXXXXXXXXXXXXXXXXXXXXXXXXXXXXXXXXXXXXXXXXXXXXXXXXXXXXXXXXXXXXXX",
"XXXXXXXXXXXXXXXXXXXXXXXXXXXXXXXXXXXXXXXXXXXXXXXXXXXXXXXXXXXXXXXX",
"XXXXXXXXXXXXXXXXXXXXXXXXXXXXXXXXXXXXXXXXXXXXXXXXXXXXXXXXXXXXXXXX",
"XXXXXXXXXXXXXXXXXXXXXXXXXXXXXXXXXXXXXXXXXXXXXXXXXXXXXXXXXXXXXXXX",
"XXXXXXXXXXXXXXXXXXXXXXXXXXXXXXXXXXXXXXXXXXXXXXXXXXXXXXXXXXXXXXXX",
"XXXXXXXXXXXXXXXXXXXXXXXXXXXXXXXXXXXXXXXXXXXXXXXXXXXXXXXXXXXXXXXX",
"XXXXXXXXXXXXXXXXXXXXXXXXXXXXXXXXXXXXXXXXXXXXXXXXXXXXXXXXXXXXXXXX",
"XXXXXXXXXXXXXXXXXXXXXXXXXXXXXXXXXXXXXXXXXXXXXXXXXXXXXXXXXXXXXXXX",
"XXXXXXXXXXXXXXXXXXXXXXXXXXXXXXXXXXXXXXXXXXXXXXXXXXXXXXXXXXXXXXXX",
"XXXXXXXXXXXXXXXXXXXXXXXXXXXXXXXXXXXXXXXXXXXXXXXXXXXXXXXXXXXXXXXX",
"XXXXXXXXXXXXXXXXXXXXXXXXXXXXXXXXXXXXXXXXXXXXXXXXXXXXXXXXXXXXXXXX",
"XXXXXXXXXXXXXXXXXXXXXXXXXXXXXXXXXXXXXXXXXXXXXXXXXXXXXXXXXXXXXXXX",
"XXXXXXXXXXXXXXXXXXXXXXXXXXXXXXXXXXXXXXXXXXXXXXXXXXXXXXXXXXXXXXXX",
"XXXXXXXXXXXXXXXXXXXXXXXXXXXXXXXXXXXXXXXXXXXXXXXXXXXXXXXXXXXXXXXX",
"XXXXXXXXXXXXXXXXXXXXXXXXXXXXXXXXXXXXXXXXXXXXXXXXXXXXXXXXXXXXXXXX",
"XXXXXXXXXXXXXXXXXXXXXXXXXXXXXXXXXXXXXXXXXXXXXXXXXXXXXXXXXXXXXXXX",
"XXXXXXXXXXXXXXXXXXXXXXXXXXXXXXXXXXXXXXXXXXXXXXXXXXXXXXXXXXXXXXXX",
"XXXXXXXXXXXXXXXXXXXXXXXXXXXXXXXXXXXXXXXXXXXXXXXXXXXXXXXXXXXXXXXX",
"XXXXXXXXXXXXXXXXXXXXXXXXXXXXXXXXXXXXXXXXXXXXXXXXXXXXXXXXXXXXXXXX",
"XXXXXXXXXXXXXXXXXXXXXXXXXXXXXXXXXXXXXXXXXXXXXXXXXXXXXXXXXXXXXXXX",
"XXXXXXXXXXXXXXXXXXXXXXXXXXXXXXXXXXXXXXXXXXXXXXXXXXXXXXXXXXXXXXXX",
"XXXXXXXXXXXXXXXXXXXXXXXXXXXXXXXXXXXXXXXXXXXXXXXXXXXXXXXXXXXXXXXX",
"XXXXXXXXXXXXXXXXXXXXXXXXXXXXXXXXXXXXXXXXXXXXXXXXXXXXXXXXXXXXXXXX",
"ooXXXXXXXXXXXXXXXXXXXXXXXXooXXXXXXXXXXXXXXXXXXXXXXXXXXXXXXXXXXXX",
"ooXXXXXXXXXXXXXXXXXXXXXXXXooXXXXXXXXXXXXXXXXXXXXXXXXXXXXXXXXXXXX",
"XXXXXXooooXXXXXXXXXXooooXXXXXXXXXXXXXXXXXXXXXXXXXXXXXXXXXXXXXXXX",
"XXXXXXooooXXXXXXXXXXooooXXXXXXXXXXXXXXXXXXXXXXXXXXXXXXXXXXXXXXXX",
"XXXXXXXXooooooooooooooXXXXXXXXXXXXXXXXXXXXXXXXXXXXXXXXXXXXXXXXXX",
"XXXXXXXXooooooooooooooXXXXXXXXXXXXXXXXXXXXXXXXXXXXXXXXXXXXXXXXXX",
"    XXXXXXXXXXXXXXXXXXXXXXXXXXXXXXXXXXXXXXXXXXXXXXXXXXXXXXXXXXXX",
"    XXXXXXXXXXXXXXXXXXXXXXXXXXXXXXXXXXXXXXXXXXXXXXXXXXXXXXXXXXXX",
"        XXXXXXXXXXXXXXXX      XXXXXXXXXXooXXXXXXXXXXXXXXXXXXXXXX",
"        XXXXXXXXXXXXXXXX      XXXXXXXXXXooXXXXXXXXXXXXXXXXXXXXXX",
"....      XXXXXXXXXX      ..    XXXXXXXXXXXXXXXXXXXXXXXXXXXXXXXX",
"....      XXXXXXXXXX      ..    XXXXXXXXXXXXXXXXXXXXXXXXXXXXXXXX",
"......                ........  XXXXXXooXXXXXXXXXXXXXXXXXXXXXXXX",
"......                ........  XXXXXXooXXXXXXXXXXXXXXXXXXXXXXXX",
"..........        ..........    XXXXXXXXXXXXXXXXXXXXXXXXXXXXXXXX",
"..........        ..........    XXXXXXXXXXXXXXXXXXXXXXXXXXXXXXXX",
"....          ..............  XXXXXXooXXXXXXXXXXXXXXXXXXXXXXXXXX",
"....          ..............  XXXXXXooXXXXXXXXXXXXXXXXXXXXXXXXXX",
"..        ................    XXXXooooXXXXXXXXXXXXXXXXXXXXXXXXXX",
"..        ................    XXXXooooXXXXXXXXXXXXXXXXXXXXXXXXXX",
"..        ................  XXXXXXooXXXXXXXXXXXXXXXXXXXXXXXXXXXX",
"..        ................  XXXXXXooXXXXXXXXXXXXXXXXXXXXXXXXXXXX",
"..      ..................  XXXXXXooXXXXXXXXXXXXXXXXXXXXXXXXXXXX",
"..      ..................  XXXXXXooXXXXXXXXXXXXXXXXXXXXXXXXXXXX",
"      ....................  XXXXXXooXXXXXXXXXXXXXXXXXXXXXXXXXXXX",
"      ....................  XXXXXXooXXXXXXXXXXXXXXXXXXXXXXXXXXXX",
"      ....................  XXXXXXooXXXXXXXXXXXXXXXXXXXXXXXXXXXX",
"      ....................  XXXXXXooXXXXXXXXXXXXXXXXXXXXXXXXXXXX",
"    ......................  XXXXXXooXXXXXXXXXXXXXXXXXXXXXXXXXXXX",
"    ......................  XXXXXXooXXXXXXXXXXXXXXXXXXXXXXXXXXXX",
"    ......................    XXXXooooXXXXXXXXXXXXXXXXXXXXXXXXXX",
"    ......................    XXXXooooXXXXXXXXXXXXXXXXXXXXXXXXXX",
"  ........................      XXXXooXXXXXXXXXXXXXXXXXXXXXXXXXX",
"  ........................      XXXXooXXXXXXXXXXXXXXXXXXXXXXXXXX",
"  ..........................    XXXXXXXXXXXXXXXXXXXXXXXXXXXXXXXX",
"  ..........................    XXXXXXXXXXXXXXXXXXXXXXXXXXXXXXXX",
"..............................    XXXXXXXXXXXXXXXXXXXXXXXXXXXXXX",
"..............................    XXXXXXXXXXXXXXXXXXXXXXXXXXXXXX",
"..............................    XXXXooXXXXXXXXXXXXXXXXXXXXXXXX",
"..............................    XXXXooXXXXXXXXXXXXXXXXXXXXXXXX"
};
