/* XPM */
static char *sea_top_left[] = {
/* columns rows colors chars-per-pixel */
"64 64 4 1 ",
"  c #F77622",
". c #FEAE34",
"X c #639BFF",
"o c white",
/* pixels */
"XXXXXXXXXXXXXXXXXXXXXXXXXXXXXXXXXXXXXXXXXXXXXXXXXXXXXXXXXXXXXXXX",
"XXXXXXXXXXXXXXXXXXXXXXXXXXXXXXXXXXXXXXXXXXXXXXXXXXXXXXXXXXXXXXXX",
"XXXXXXXXXXXXXXXXXXXXXXXXXXXXXXXXXXXXXXXXXXXXXXXXXXXXXXXXXXXXXXXX",
"XXXXXXXXXXXXXXXXXXXXXXXXXXXXXXXXXXXXXXXXXXXXXXXXXXXXXXXXXXXXXXXX",
"XXXXXXXXXXXXXXXXXXXXXXXXXXXXXXXXXXXXXXXXXXXXXXXXXXXXXXXXXXXXXXXX",
"XXXXXXXXXXXXXXXXXXXXXXXXXXXXXXXXXXXXXXXXXXXXXXXXXXXXXXXXXXXXXXXX",
"XXXXXXXXXXXXXXXXXXXXXXXXXXXXXXXXXXXXXXXXXXXXXXXXXXXXXXXXXXXXXXXX",
"XXXXXXXXXXXXXXXXXXXXXXXXXXXXXXXXXXXXXXXXXXXXXXXXXXXXXXXXXXXXXXXX",
"XXXXXXXXXXXXXXXXXXXXXXXXXXXXXXXXXXXXXXXXXXXXXXXXXXXXXXXXXXXXXXXX",
"XXXXXXXXXXXXXXXXXXXXXXXXXXXXXXXXXXXXXXXXXXXXXXXXXXXXXXXXXXXXXXXX",
"XXXXXXXXXXXXXXXXXXXXXXXXXXXXXXXXXXXXXXXXXXXXXXXXXXXXXXXXXXXXXXXX",
"XXXXXXXXXXXXXXXXXXXXXXXXXXXXXXXXXXXXXXXXXXXXXXXXXXXXXXXXXXXXXXXX",
"XXXXXXXXXXXXXXXXXXXXXXXXXXXXXXXXXXXXXXXXXXXXXXXXXXXXXXXXXXXXXXXX",
"XXXXXXXXXXXXXXXXXXXXXXXXXXXXXXXXXXXXXXXXXXXXXXXXXXXXXXXXXXXXXXXX",
"XXXXXXXXXXXXXXXXXXXXXXXXXXXXXXXXXXXXXXXXXXXXXXXXXXXXXXXXXXXXXXXX",
"XXXXXXXXXXXXXXXXXXXXXXXXXXXXXXXXXXXXXXXXXXXXXXXXXXXXXXXXXXXXXXXX",
"XXXXXXXXXXXXXXXXXXXXXXXXXXXXXXXXXXXXXXXXXXXXXXXXXXXXXXXXXXXXXXXX",
"XXXXXXXXXXXXXXXXXXXXXXXXXXXXXXXXXXXXXXXXXXXXXXXXXXXXXXXXXXXXXXXX",
"XXXXXXXXXXXXXXXXXXXXXXXXXXXXXXXXXXXXXXXXXXXXXXXXXXXXXXXXXXXXXXXX",
"XXXXXXXXXXXXXXXXXXXXXXXXXXXXXXXXXXXXXXXXXXXXXXXXXXXXXXXXXXXXXXXX",
"XXXXXXXXXXXXXXXXXXXXXXXXXXXXXXXXXXXXXXXXXXXXXXXXXXXXXXXXXXXXXXXX",
"XXXXXXXXXXXXXXXXXXXXXXXXXXXXXXXXXXXXXXXXXXXXXXXXXXXXXXXXXXXXXXXX",
"XXXXXXXXXXXXXXXXXXXXXXXXXXXXXXXXXXXXXXXXXXXXXXXXXXXXXXXXXXXXXXXX",
"XXXXXXXXXXXXXXXXXXXXXXXXXXXXXXXXXXXXXXXXXXXXXXXXXXXXXXXXXXXXXXXX",
"XXXXXXXXXXXXXXXXXXXXXXXXXXooXXXXXXXXXXXXXXXXXXXXooooooooXXoooooo",
"XXXXXXXXXXXXXXXXXXXXXXXXXXooXXXXXXXXXXXXXXXXXXXXooooooooXXoooooo",
"XXXXXXXXXXXXXXXXXXXXXXXXXXXXXXXXXXXXXXXXXXXXXXXXXXXXXXooooooXXXX",
"XXXXXXXXXXXXXXXXXXXXXXXXXXXXXXXXXXXXXXXXXXXXXXXXXXXXXXooooooXXXX",
"XXXXXXXXXXXXXXXXXXXXXXXXXXXXXXXX              XXXXXXXXXXXXXXXXXX",
"XXXXXXXXXXXXXXXXXXXXXXXXXXXXXXXX              XXXXXXXXXXXXXXXXXX",
"XXXXXXXXXXXXXXXXXXXXXXXXXXXXXX                  XXXXXXXXXXXX    ",
"XXXXXXXXXXXXXXXXXXXXXXXXXXXXXX                  XXXXXXXXXXXX    ",
"XXXXXXXXXXXXXXXXXXXXXXooXXXXXX      ........                    ",
"XXXXXXXXXXXXXXXXXXXXXXooXXXXXX      ........                    ",
"XXXXXXXXXXXXXXXXXXXXXXXXXXXXXX    ................          ....",
"XXXXXXXXXXXXXXXXXXXXXXXXXXXXXX    ................          ....",
"XXXXXXXXXXXXXXXXXXXXXXXXooXXXXXX  ..............................",
"XXXXXXXXXXXXXXXXXXXXXXXXooXXXXXX  ..............................",
"XXXXXXXXXXXXXXXXXXXXXXXXXXXXXXXX    ............................",
"XXXXXXXXXXXXXXXXXXXXXXXXXXXXXXXX    ............................",
"XXXXXXXXXXXXXXXXXXXXXXXXXXooXXXXXX  ............................",
"XXXXXXXXXXXXXXXXXXXXXXXXXXooXXXXXX  ............................",
"XXXXXXXXXXXXXXXXXXXXXXXXXXooooXXXX    ..........................",
"XXXXXXXXXXXXXXXXXXXXXXXXXXooooXXXX    ..........................",
"XXXXXXXXXXXXXXXXXXXXXXXXXXXXooXXXXXX  ..........................",
"XXXXXXXXXXXXXXXXXXXXXXXXXXXXooXXXXXX  ..........................",
"XXXXXXXXXXXXXXXXXXXXXXXXXXXXooXXXXXX    ........................",
"XXXXXXXXXXXXXXXXXXXXXXXXXXXXooXXXXXX    ........................",
"XXXXXXXXXXXXXXXXXXXXXXXXXXXXooXXXXXX    ........................",
"XXXXXXXXXXXXXXXXXXXXXXXXXXXXooXXXXXX    ........................",
"XXXXXXXXXXXXXXXXXXXXXXXXXXXXooXXXXXX    ........................",
"XXXXXXXXXXXXXXXXXXXXXXXXXXXXooXXXXXX    ........................",
"XXXXXXXXXXXXXXXXXXXXXXXXXXXXooXXXXXX    ........................",
"XXXXXXXXXXXXXXXXXXXXXXXXXXXXooXXXXXX    ........................",
"XXXXXXXXXXXXXXXXXXXXXXXXXXooooXXXX    ..........................",
"XXXXXXXXXXXXXXXXXXXXXXXXXXooooXXXX    ..........................",
"XXXXXXXXXXXXXXXXXXXXXXXXXXooXXXX      ..........................",
"XXXXXXXXXXXXXXXXXXXXXXXXXXooXXXX      ..........................",
"XXXXXXXXXXXXXXXXXXXXXXXXXXXXXXXX    ..........................  ",
"XXXXXXXXXXXXXXXXXXXXXXXXXXXXXXXX    ..........................  ",
"XXXXXXXXXXXXXXXXXXXXXXXXXXXXXX    ............................  ",
"XXXXXXXXXXXXXXXXXXXXXXXXXXXXXX    ............................  ",
"XXXXXXXXXXXXXXXXXXXXXXXXooXXXX    ............................  ",
"XXXXXXXXXXXXXXXXXXXXXXXXooXXXX    ............................  "
};
