/* XPM */
static char *Beach_Tileset_06_01[] = {
/* columns rows colors chars-per-pixel */
"64 64 8 1 ",
"  c #265C42",
". c #F77622",
"X c #B86F50",
"o c #3E8948",
"O c #63C74D",
"+ c #FEAE34",
"@ c #C28569",
"# c #E8B796",
/* pixels */
"++++++++++++++++++++++++++++++++++++++++++++++++++++++++++++....",
"++++++++++++++++++++++++++++++++++++++++++++++++++++++++++++....",
"++++++++++++++++++++++++++++++++++++++++++++++++++++++++++++..++",
"++++++++++++++++++++++++++++++++++++++++++++++++++++++++++++..++",
"++++++++++++++++++++++++++++++++++++++++++++++++++++++++++....++",
"++++++++++++++++++++++++++++++++++++++++++++++++++++++++++....++",
"++++++++++++++++++++++++++++++++++++++++++++++++++++++++++....++",
"++++++++++++++++++++++++++++++++++++++++++++++++++++++++++....++",
"++++++++++++++++++++++++++++++++++++++++++++++++++++++++......++",
"++++++++++++++++++++++++++++++++++++++++++++++++++++++++......++",
"++++++++++++++++++++++++++++++++++++++                ......++++",
"++++++++++++++++++++++++++++++++++++++                ......++++",
"++++++++++++        ++++        ++++  OOOOOOOOOOOOOO    ..++++++",
"++++++++++++        ++++        ++++  OOOOOOOOOOOOOO    ..++++++",
"++++++++    OOOOOOOO      OOOO      ooooooooooooooooOOOO  ++++++",
"++++++++    OOOOOOOO      OOOO      ooooooooooooooooOOOO  ++++++",
"++++++                  OOooooOO  ooooooooooooooooooooooOO  ++++",
"++++++                  OOooooOO  ooooooooooooooooooooooOO  ++++",
"++++  OOOOOOOOOOOOOOOOOO  oooooo                        ooOO  ++",
"++++  OOOOOOOOOOOOOOOOOO  oooooo                        ooOO  ++",
"++  OOooooooooooooooOOoo    oooo    OOOOOOOOOO    ++++    oo  ++",
"++  OOooooooooooooooOOoo    oooo    OOOOOOOOOO    ++++    oo  ++",
"++oooo          OOOOOOOOoooo      OOOOooooooooOOOO  ++++      ++",
"++oooo          OOOOOOOOoooo      OOOOooooooooOOOO  ++++      ++",
"++        OOOOOOoooooooooo        ooooooooooooooooOO  ++++++  ++",
"++        OOOOOOoooooooooo        ooooooooooooooooOO  ++++++  ++",
"++++++  OOOOoooooooooo      OOOOoo          ooooooooOO  ++++++++",
"++++++  OOOOoooooooooo      OOOOoo          ooooooooOO  ++++++++",
"++    OOOOoooooooo        OOOOoo                oooooo  ++++++++",
"++    OOOOoooooooo        OOOOoo                oooooo  ++++++++",
"++  OOOOoooo            OOOOoooo      ++++        oooo  ++++++++",
"++  OOOOoooo            OOOOoooo      ++++        oooo  ++++++++",
"++oooooo                OOoooo    XX++++++++++      oooo  ++++++",
"++oooooo                OOoooo    XX++++++++++      oooo  ++++++",
"++oooo          ......  oooo      XX++++++++++++++    oooo  ++++",
"++oooo          ......  oooo      XX++++++++++++++    oooo  ++++",
"++oo      ..........++  oo      XXXX++++++++++++++++    oo  ++++",
"++oo      ..........++  oo      XXXX++++++++++++++++    oo  ++++",
"++        ......++++++  oo    XXXXXX++++++++++++++++++        ++",
"++        ......++++++  oo    XXXXXX++++++++++++++++++        ++",
"++++..  ......++++++  oooo  ++XX@@XX++++++++++++++++++++++    ++",
"++++..  ......++++++  oooo  ++XX@@XX++++++++++++++++++++++    ++",
"++........++++++++++  oo    ++@@@@XX++++++++++++++++++++++++++++",
"++........++++++++++  oo    ++@@@@XX++++++++++++++++++++++++++++",
"++........++++++++++  oo    ++@@@@XX++++++++++++++++++++++++++++",
"++........++++++++++  oo    ++@@@@XX++++++++++++++++++++++++++++",
"++......++++++++++++      ++++++@@XXXX++++++++++++++++++++++++++",
"++......++++++++++++      ++++++@@XXXX++++++++++++++++++++++++++",
"......++++++++++++++++    ++++++@@XXXX++++++++++++++++++++++++++",
"......++++++++++++++++    ++++++@@XXXX++++++++++++++++++++++++++",
"......++++++++++++++++++  ++++++@@##XX++++++++++++++++++++++++++",
"......++++++++++++++++++  ++++++@@##XX++++++++++++++++++++++++++",
"....++++++++++++++++++++++++++++@@##XX++++++++++++++++++++++++++",
"....++++++++++++++++++++++++++++@@##XX++++++++++++++++++++++++++",
"....++++++++++++++++++++++++++++@@##XX++++++++++++++++++++++++++",
"....++++++++++++++++++++++++++++@@##XX++++++++++++++++++++++++++",
"..++++++++++++++++++++++++++++++@@@@XX++++++++++++++++++++++++++",
"..++++++++++++++++++++++++++++++@@@@XX++++++++++++++++++++++++++",
"..++++++++++++++++++++++++++++++@@XXXX++++++++++++++++++++++++..",
"..++++++++++++++++++++++++++++++@@XXXX++++++++++++++++++++++++..",
"++++++++++++++++++++++++++++++@@@@##XX++++++++++++++++++++++++..",
"++++++++++++++++++++++++++++++@@@@##XX++++++++++++++++++++++++..",
"++++++++++++++++++++++++++++++@@####XX++++++++++++++++++++++++..",
"++++++++++++++++++++++++++++++@@####XX++++++++++++++++++++++++.."
};
