/* XPM */
static char *Beach_Tileset_53_left[] = {
/* columns rows colors chars-per-pixel */
"64 64 6 1 ",
"  c #181425",
". c #89493D",
"X c #A3685B",
"o c #E4A672",
"O c #EAD4AA",
"+ c None",
/* pixels */
"++++++++++++++++++++++++++++++++++++++++++++++++++++++++++++++++",
"++++++++++++++++++++++++++++++++++++++++++++++++++++++++++++++++",
"++++++++++++++++++++++++++++++++++++++++++++++++++++++++++++++++",
"++++++++++++++++++++++++++++++++++++++++++++++++++++++++++++++++",
"++++++++++++++++++++++++++++++++++++++++++++++++++++++++++++++++",
"++++++++++++++++++++++++++++++++++++++++++++++++++++++++++++++++",
"++++++++++++++++++++++++++++++++++++++++++++++++++++++++++++++++",
"++++++++++++++++++++++++++++++++++++++++++++++++++++++++++++++++",
"++++++++++++++++++++++++++++++++++++++++++++++++++++++++++++++++",
"++++++++++++++++++++++++++++++++++++++++++++++++++++++++++++++++",
"++++++++++++++++++++++++++++++++++++++++++++++++++++++++++++++++",
"++++++++++++++++++++++++++++++++++++++++++++++++++++++++++++++++",
"++++++++++++++++++++++++++++++++++++++++++++++++++++++++++++++++",
"++++++++++++++++++++++++++++++++++++++++++++++++++++++++++++++++",
"++++++++++++++++++++++++++++++++++++++++++++++++++++++++++++++++",
"++++++++++++++++++++++++++++++++++++++++++++++++++++++++++++++++",
"++++++++++++++++++++++++++++++++++++++++++++++++++++++++++++++++",
"++++++++++++++++++++++++++++++++++++++++++++++++++++++++++++++++",
"++++++++++++++++++++++++++++++++++++++++++++++++++++++++++++++++",
"++++++++++++++++++++++++++++++++++++++++++++++++++++++++++++++++",
"++++++++++++++++++++++++++++++++++++++++++++++++++++++++++++++++",
"++++++++++++++++++++++++++++++++++++++++++++++++++++++++++++++++",
"++++++++++++++++++++++++++++++++++++++++++++++++++++++++++++++++",
"++++++++++++++++++++++++++++++++++++++++++++++++++++++++++++++++",
"++++++++++++++++++++++++++++++++++++++++++++++++++++++++++++++++",
"++++++++++++++++++++++++++++++++++++++++++++++++++++++++++++++++",
"++++++++++++++++++++++++++++++++++++++++++++++++++++++++++++++++",
"++++++++++++++++++++++++++++++++++++++++++++++++++++++++++++++++",
"++++++++++++++++++++++++++++++++++++++++++++++++++++++++++++++++",
"++++++++++++++++++++++++++++++++++++++++++++++++++++++++++++++++",
"++++++++++++++++++++++++++++++++++++++++++++++++++++++++++++++++",
"++++++++++++++++++++++++++++++++++++++++++++++++++++++++++++++++",
"++++++++++++++++++++++++++++++++++++++++++++++++++++++++++++++++",
"++++++++++++++++++++++++++++++++++++++++++++++++++++++++++++++++",
"++++++++++++++++++++++                    ++++++++++++++++++++++",
"++++++++++++++++++++++                    ++++++++++++++++++++++",
"++++++++++++++++++++++  OOOOOOOOOOOOOOoo  ++++++++++++++++++++++",
"++++++++++++++++++++++  OOOOOOOOOOOOOOoo  ++++++++++++++++++++++",
"++++++++++++++++++++++  OOOOOOOOOOOOOOoo  ++++++++++++++++++++++",
"++++++++++++++++++++++  OOOOOOOOOOOOOOoo  ++++++++++++++++++++++",
"++++++++++++++++++++++  OOOOOOOOOOOOOOoo  ++++++++++++++++++++++",
"++++++++++++++++++++++  OOOOOOOOOOOOOOoo  ++++++++++++++++++++++",
"++++++++++++++++++++++    OOOOOO    OOoo  ++++++++++++++++++++++",
"++++++++++++++++++++++    OOOOOO    OOoo  ++++++++++++++++++++++",
"++++++++++++++++++++++    OOOOOO    OOoo  ++++++++++++++++++++++",
"++++++++++++++++++++++    OOOOOO    OOoo  ++++++++++++++++++++++",
"++++++++++++++++++++++  OOOOOOOOOOOOOOoo  ++++++++++++++++++++++",
"++++++++++++++++++++++  OOOOOOOOOOOOOOoo  ++++++++++++++++++++++",
"++++++++++++++++++++++  OOOOOOOOOOOOOOoo  ++++++++++++++++++++++",
"++++++++++++++++++++++  OOOOOOOOOOOOOOoo  ++++++++++++++++++++++",
"++++++++++++++++++++++  OOOOOOOOOOOOOOoo  ++++++++++++++++++++++",
"++++++++++++++++++++++  OOOOOOOOOOOOOOoo  ++++++++++++++++++++++",
"++++++++++++++++++++++  XXXXXXXXXXXXXXXX  ++++++++++++++++++++++",
"++++++++++++++++++++++  XXXXXXXXXXXXXXXX  ++++++++++++++++++++++",
"++++++++++++++++++++++  ................  ++++++++++++++++++++++",
"++++++++++++++++++++++  ................  ++++++++++++++++++++++",
"++++++++++++++++++++++  ................      ++++++++++++++++++",
"++++++++++++++++++++++  ................      ++++++++++++++++++",
"++++++++++++++++++++++  XXXX          XXXXXX  ++++++++++++++++++",
"++++++++++++++++++++++  XXXX          XXXXXX  ++++++++++++++++++",
"++++++++++++++++++++++  XX    ++++++++        ++++++++++++++++++",
"++++++++++++++++++++++  XX    ++++++++        ++++++++++++++++++",
"++++++++++++++++++++++      ++++++++++++++++++++++++++++++++++++",
"++++++++++++++++++++++      ++++++++++++++++++++++++++++++++++++"
};
