/* XPM */
static char *left_4[] = {
/* columns rows colors chars-per-pixel */
"64 64 4 1 ",
"  c #F77622",
". c #FEAE34",
"X c #639BFF",
"o c white",
/* pixels */
"XXXXXXXXXXXXXXXXXXXXooXXXXXXXX    ..........................    ",
"XXXXXXXXXXXXXXXXXXXXooXXXXXXXX    ..........................    ",
"XXXXXXXXXXXXXXXXXXXXooXXXXXXXX    ..........................  ..",
"XXXXXXXXXXXXXXXXXXXXooXXXXXXXX    ..........................  ..",
"XXXXXXXXXXXXXXXXXXXXooooXXXXXXXX    ......................    ..",
"XXXXXXXXXXXXXXXXXXXXooooXXXXXXXX    ......................    ..",
"XXXXXXXXXXXXXXXXXXXXXXooXXXXXXXX    ......................    ..",
"XXXXXXXXXXXXXXXXXXXXXXooXXXXXXXX    ......................    ..",
"XXXXXXXXXXXXXXXXXXXXooooXXXXXXXX    ....................      ..",
"XXXXXXXXXXXXXXXXXXXXooooXXXXXXXX    ....................      ..",
"XXXXXXXXXXXXXXXXXXXXooXXXXXXXXXX    ..................      ....",
"XXXXXXXXXXXXXXXXXXXXooXXXXXXXXXX    ..................      ....",
"XXXXXXXXXXXXXXXXXXXXooXXXXXXXXXX    ................      ......",
"XXXXXXXXXXXXXXXXXXXXooXXXXXXXXXX    ................      ......",
"XXXXXXXXXXXXXXXXXXXXooXXXXXXXXXX  ................      ........",
"XXXXXXXXXXXXXXXXXXXXooXXXXXXXXXX  ................      ........",
"XXXXXXXXXXXXXXXXXXXXXXXXXXXXXX    ..............      ..........",
"XXXXXXXXXXXXXXXXXXXXXXXXXXXXXX    ..............      ..........",
"XXXXXXXXXXXXXXXXXXooXXXXXXXX      ..........        ............",
"XXXXXXXXXXXXXXXXXXooXXXXXXXX      ..........        ............",
"XXXXXXXXXXXXXXXXXXXXXXXXXXXX    ........          ..............",
"XXXXXXXXXXXXXXXXXXXXXXXXXXXX    ........          ..............",
"XXXXXXXXXXXXXXXXXXXXXXXXXXXX    ......          ................",
"XXXXXXXXXXXXXXXXXXXXXXXXXXXX    ......          ................",
"XXXXXXXXXXXXXXXXXXXXXXXXXXXX    ..          ....................",
"XXXXXXXXXXXXXXXXXXXXXXXXXXXX    ..          ....................",
"XXXXXXXXXXXXXXXXXXXXXXXXXXXX            ........................",
"XXXXXXXXXXXXXXXXXXXXXXXXXXXX            ........................",
"XXXXXXXXXXXXXXXXXXXXXXXXXXXX          ..........................",
"XXXXXXXXXXXXXXXXXXXXXXXXXXXX          ..........................",
"XXXXXXXXXXXXXXXXXXXXXXXXXXXX      ..............................",
"XXXXXXXXXXXXXXXXXXXXXXXXXXXX      ..............................",
"XXXXXXXXXXXXXXXXXooXXXXXXXXXXX    ..............................",
"XXXXXXXXXXXXXXXXXooXXXXXXXXXXX    ..............................",
"XXXXXXXXXXXXXXXXXXXXXXXXXXXXXX    ..............................",
"XXXXXXXXXXXXXXXXXXXXXXXXXXXXXX    ..............................",
"XXXXXXXXXXXXXXXXXXXooXXXXXXXXXXX  ..............................",
"XXXXXXXXXXXXXXXXXXXooXXXXXXXXXXX  ..............................",
"XXXXXXXXXXXXXXXXXXXXXXXXXXXXXXXX    ............................",
"XXXXXXXXXXXXXXXXXXXXXXXXXXXXXXXX    ............................",
"XXXXXXXXXXXXXXXXXXXXXooXXXXXXXXXXX  ............................",
"XXXXXXXXXXXXXXXXXXXXXooXXXXXXXXXXX  ............................",
"XXXXXXXXXXXXXXXXXXXXXooooXXXXXXXXX    ..........................",
"XXXXXXXXXXXXXXXXXXXXXooooXXXXXXXXX    ..........................",
"XXXXXXXXXXXXXXXXXXXXXXXooXXXXXXXXXXX  ..........................",
"XXXXXXXXXXXXXXXXXXXXXXXooXXXXXXXXXXX  ..........................",
"XXXXXXXXXXXXXXXXXXXXXXXooXXXXXXXXXXX    ........................",
"XXXXXXXXXXXXXXXXXXXXXXXooXXXXXXXXXXX    ........................",
"XXXXXXXXXXXXXXXXXXXXXXXooXXXXXXXXXXX    ........................",
"XXXXXXXXXXXXXXXXXXXXXXXooXXXXXXXXXXX    ........................",
"XXXXXXXXXXXXXXXXXXXXXXXooXXXXXXXXXXX    ........................",
"XXXXXXXXXXXXXXXXXXXXXXXooXXXXXXXXXXX    ........................",
"XXXXXXXXXXXXXXXXXXXXXXXooXXXXXXXXXXX    ........................",
"XXXXXXXXXXXXXXXXXXXXXXXooXXXXXXXXXXX    ........................",
"XXXXXXXXXXXXXXXXXXXXXooooXXXXXXXXX    ..........................",
"XXXXXXXXXXXXXXXXXXXXXooooXXXXXXXXX    ..........................",
"XXXXXXXXXXXXXXXXXXXXXooXXXXXXXXX      ..........................",
"XXXXXXXXXXXXXXXXXXXXXooXXXXXXXXX      ..........................",
"XXXXXXXXXXXXXXXXXXXXXXXXXXXXXXXX    ..........................  ",
"XXXXXXXXXXXXXXXXXXXXXXXXXXXXXXXX    ..........................  ",
"XXXXXXXXXXXXXXXXXXXXXXXXXXXXXX    ............................  ",
"XXXXXXXXXXXXXXXXXXXXXXXXXXXXXX    ............................  ",
"XXXXXXXXXXXXXXXXXXXooXXXXXXXXX    ............................  ",
"XXXXXXXXXXXXXXXXXXXooXXXXXXXXX    ............................  "
};
