/* XPM */
static char *left_1[] = {
/* columns rows colors chars-per-pixel */
"64 64 4 1 ",
"  c #F77622",
". c #FEAE34",
"X c #639BFF",
"o c white",
/* pixels */
"XXXXXXXXXXXXXXXXXXXXXXooXXXXXX    ..........................    ",
"XXXXXXXXXXXXXXXXXXXXXXooXXXXXX    ..........................    ",
"XXXXXXXXXXXXXXXXXXXXXXooXXXXXX    ..........................  ..",
"XXXXXXXXXXXXXXXXXXXXXXooXXXXXX    ..........................  ..",
"XXXXXXXXXXXXXXXXXXXXXXooooXXXXXX    ......................    ..",
"XXXXXXXXXXXXXXXXXXXXXXooooXXXXXX    ......................    ..",
"XXXXXXXXXXXXXXXXXXXXXXXXooXXXXXX    ......................    ..",
"XXXXXXXXXXXXXXXXXXXXXXXXooXXXXXX    ......................    ..",
"XXXXXXXXXXXXXXXXXXXXXXooooXXXXXX    ....................      ..",
"XXXXXXXXXXXXXXXXXXXXXXooooXXXXXX    ....................      ..",
"XXXXXXXXXXXXXXXXXXXXXXooXXXXXXXX    ..................      ....",
"XXXXXXXXXXXXXXXXXXXXXXooXXXXXXXX    ..................      ....",
"XXXXXXXXXXXXXXXXXXXXXXooXXXXXXXX    ................      ......",
"XXXXXXXXXXXXXXXXXXXXXXooXXXXXXXX    ................      ......",
"XXXXXXXXXXXXXXXXXXXXXXooXXXXXXXX  ................      ........",
"XXXXXXXXXXXXXXXXXXXXXXooXXXXXXXX  ................      ........",
"XXXXXXXXXXXXXXXXXXXXXXXXXXXXXX    ..............      ..........",
"XXXXXXXXXXXXXXXXXXXXXXXXXXXXXX    ..............      ..........",
"XXXXXXXXXXXXXXXXXXXXooXXXXXX      ..........        ............",
"XXXXXXXXXXXXXXXXXXXXooXXXXXX      ..........        ............",
"XXXXXXXXXXXXXXXXXXXXXXXXXXXX    ........          ..............",
"XXXXXXXXXXXXXXXXXXXXXXXXXXXX    ........          ..............",
"XXXXXXXXXXXXXXXXXXXXXXXXXXXX    ......          ................",
"XXXXXXXXXXXXXXXXXXXXXXXXXXXX    ......          ................",
"XXXXXXXXXXXXXXXXXXXXXXXXXXXX    ..          ....................",
"XXXXXXXXXXXXXXXXXXXXXXXXXXXX    ..          ....................",
"XXXXXXXXXXXXXXXXXXXXXXXXXXXX            ........................",
"XXXXXXXXXXXXXXXXXXXXXXXXXXXX            ........................",
"XXXXXXXXXXXXXXXXXXXXXXXXXXXX          ..........................",
"XXXXXXXXXXXXXXXXXXXXXXXXXXXX          ..........................",
"XXXXXXXXXXXXXXXXXXXXXXXXXXXX      ..............................",
"XXXXXXXXXXXXXXXXXXXXXXXXXXXX      ..............................",
"XXXXXXXXXXXXXXXXXXXXXXooXXXXXX    ..............................",
"XXXXXXXXXXXXXXXXXXXXXXooXXXXXX    ..............................",
"XXXXXXXXXXXXXXXXXXXXXXXXXXXXXX    ..............................",
"XXXXXXXXXXXXXXXXXXXXXXXXXXXXXX    ..............................",
"XXXXXXXXXXXXXXXXXXXXXXXXooXXXXXX  ..............................",
"XXXXXXXXXXXXXXXXXXXXXXXXooXXXXXX  ..............................",
"XXXXXXXXXXXXXXXXXXXXXXXXXXXXXXXX    ............................",
"XXXXXXXXXXXXXXXXXXXXXXXXXXXXXXXX    ............................",
"XXXXXXXXXXXXXXXXXXXXXXXXXXooXXXXXX  ............................",
"XXXXXXXXXXXXXXXXXXXXXXXXXXooXXXXXX  ............................",
"XXXXXXXXXXXXXXXXXXXXXXXXXXooooXXXX    ..........................",
"XXXXXXXXXXXXXXXXXXXXXXXXXXooooXXXX    ..........................",
"XXXXXXXXXXXXXXXXXXXXXXXXXXXXooXXXXXX  ..........................",
"XXXXXXXXXXXXXXXXXXXXXXXXXXXXooXXXXXX  ..........................",
"XXXXXXXXXXXXXXXXXXXXXXXXXXXXooXXXXXX    ........................",
"XXXXXXXXXXXXXXXXXXXXXXXXXXXXooXXXXXX    ........................",
"XXXXXXXXXXXXXXXXXXXXXXXXXXXXooXXXXXX    ........................",
"XXXXXXXXXXXXXXXXXXXXXXXXXXXXooXXXXXX    ........................",
"XXXXXXXXXXXXXXXXXXXXXXXXXXXXooXXXXXX    ........................",
"XXXXXXXXXXXXXXXXXXXXXXXXXXXXooXXXXXX    ........................",
"XXXXXXXXXXXXXXXXXXXXXXXXXXXXooXXXXXX    ........................",
"XXXXXXXXXXXXXXXXXXXXXXXXXXXXooXXXXXX    ........................",
"XXXXXXXXXXXXXXXXXXXXXXXXXXooooXXXX    ..........................",
"XXXXXXXXXXXXXXXXXXXXXXXXXXooooXXXX    ..........................",
"XXXXXXXXXXXXXXXXXXXXXXXXXXooXXXX      ..........................",
"XXXXXXXXXXXXXXXXXXXXXXXXXXooXXXX      ..........................",
"XXXXXXXXXXXXXXXXXXXXXXXXXXXXXXXX    ..........................  ",
"XXXXXXXXXXXXXXXXXXXXXXXXXXXXXXXX    ..........................  ",
"XXXXXXXXXXXXXXXXXXXXXXXXXXXXXX    ............................  ",
"XXXXXXXXXXXXXXXXXXXXXXXXXXXXXX    ............................  ",
"XXXXXXXXXXXXXXXXXXXXXXXXooXXXX    ............................  ",
"XXXXXXXXXXXXXXXXXXXXXXXXooXXXX    ............................  "
};
