/* XPM */
static char *left_3[] = {
/* columns rows colors chars-per-pixel */
"64 64 4 1 ",
"  c #F77622",
". c #FEAE34",
"X c #639BFF",
"o c white",
/* pixels */
"XXXXXXXXXXXXXXXXXXXXooXXXXXXXX    ..........................    ",
"XXXXXXXXXXXXXXXXXXXXooXXXXXXXX    ..........................    ",
"XXXXXXXXXXXXXXXXXXXXooXXXXXXXX    ..........................  ..",
"XXXXXXXXXXXXXXXXXXXXooXXXXXXXX    ..........................  ..",
"XXXXXXXXXXXXXXXXXXXXooooXXXXXXXX    ......................    ..",
"XXXXXXXXXXXXXXXXXXXXooooXXXXXXXX    ......................    ..",
"XXXXXXXXXXXXXXXXXXXXXXooXXXXXXXX    ......................    ..",
"XXXXXXXXXXXXXXXXXXXXXXooXXXXXXXX    ......................    ..",
"XXXXXXXXXXXXXXXXXXXXooooXXXXXXXX    ....................      ..",
"XXXXXXXXXXXXXXXXXXXXooooXXXXXXXX    ....................      ..",
"XXXXXXXXXXXXXXXXXXXXooXXXXXXXXXX    ..................      ....",
"XXXXXXXXXXXXXXXXXXXXooXXXXXXXXXX    ..................      ....",
"XXXXXXXXXXXXXXXXXXXXooXXXXXXXXXX    ................      ......",
"XXXXXXXXXXXXXXXXXXXXooXXXXXXXXXX    ................      ......",
"XXXXXXXXXXXXXXXXXXXXooXXXXXXXXXX  ................      ........",
"XXXXXXXXXXXXXXXXXXXXooXXXXXXXXXX  ................      ........",
"XXXXXXXXXXXXXXXXXXXXXXXXXXXXXX    ..............      ..........",
"XXXXXXXXXXXXXXXXXXXXXXXXXXXXXX    ..............      ..........",
"XXXXXXXXXXXXXXXXXXooXXXXXXXX      ..........        ............",
"XXXXXXXXXXXXXXXXXXooXXXXXXXX      ..........        ............",
"XXXXXXXXXXXXXXXXXXXXXXXXXXXX    ........          ..............",
"XXXXXXXXXXXXXXXXXXXXXXXXXXXX    ........          ..............",
"XXXXXXXXXXXXXXXXXXXXXXXXXXXX    ......          ................",
"XXXXXXXXXXXXXXXXXXXXXXXXXXXX    ......          ................",
"XXXXXXXXXXXXXXXXXXXXXXXXXXXX    ..          ....................",
"XXXXXXXXXXXXXXXXXXXXXXXXXXXX    ..          ....................",
"XXXXXXXXXXXXXXXXXXXXXXXXXXXX            ........................",
"XXXXXXXXXXXXXXXXXXXXXXXXXXXX            ........................",
"XXXXXXXXXXXXXXXXXXXXXXXXXXXX          ..........................",
"XXXXXXXXXXXXXXXXXXXXXXXXXXXX          ..........................",
"XXXXXXXXXXXXXXXXXXXXXXXXXXXX      ..............................",
"XXXXXXXXXXXXXXXXXXXXXXXXXXXX      ..............................",
"XXXXXXXXXXXXXXXXXXXooXXXXXXXXX    ..............................",
"XXXXXXXXXXXXXXXXXXXooXXXXXXXXX    ..............................",
"XXXXXXXXXXXXXXXXXXXXXXXXXXXXXX    ..............................",
"XXXXXXXXXXXXXXXXXXXXXXXXXXXXXX    ..............................",
"XXXXXXXXXXXXXXXXXXXXXooXXXXXXXXX  ..............................",
"XXXXXXXXXXXXXXXXXXXXXooXXXXXXXXX  ..............................",
"XXXXXXXXXXXXXXXXXXXXXXXXXXXXXXXX    ............................",
"XXXXXXXXXXXXXXXXXXXXXXXXXXXXXXXX    ............................",
"XXXXXXXXXXXXXXXXXXXXXXXooXXXXXXXXX  ............................",
"XXXXXXXXXXXXXXXXXXXXXXXooXXXXXXXXX  ............................",
"XXXXXXXXXXXXXXXXXXXXXXXooooXXXXXXX    ..........................",
"XXXXXXXXXXXXXXXXXXXXXXXooooXXXXXXX    ..........................",
"XXXXXXXXXXXXXXXXXXXXXXXXXooXXXXXXXXX  ..........................",
"XXXXXXXXXXXXXXXXXXXXXXXXXooXXXXXXXXX  ..........................",
"XXXXXXXXXXXXXXXXXXXXXXXXXooXXXXXXXXX    ........................",
"XXXXXXXXXXXXXXXXXXXXXXXXXooXXXXXXXXX    ........................",
"XXXXXXXXXXXXXXXXXXXXXXXXXooXXXXXXXXX    ........................",
"XXXXXXXXXXXXXXXXXXXXXXXXXooXXXXXXXXX    ........................",
"XXXXXXXXXXXXXXXXXXXXXXXXXooXXXXXXXXX    ........................",
"XXXXXXXXXXXXXXXXXXXXXXXXXooXXXXXXXXX    ........................",
"XXXXXXXXXXXXXXXXXXXXXXXXXooXXXXXXXXX    ........................",
"XXXXXXXXXXXXXXXXXXXXXXXXXooXXXXXXXXX    ........................",
"XXXXXXXXXXXXXXXXXXXXXXXooooXXXXXXX    ..........................",
"XXXXXXXXXXXXXXXXXXXXXXXooooXXXXXXX    ..........................",
"XXXXXXXXXXXXXXXXXXXXXXXooXXXXXXX      ..........................",
"XXXXXXXXXXXXXXXXXXXXXXXooXXXXXXX      ..........................",
"XXXXXXXXXXXXXXXXXXXXXXXXXXXXXXXX    ..........................  ",
"XXXXXXXXXXXXXXXXXXXXXXXXXXXXXXXX    ..........................  ",
"XXXXXXXXXXXXXXXXXXXXXXXXXXXXXX    ............................  ",
"XXXXXXXXXXXXXXXXXXXXXXXXXXXXXX    ............................  ",
"XXXXXXXXXXXXXXXXXXXXXooXXXXXXX    ............................  ",
"XXXXXXXXXXXXXXXXXXXXXooXXXXXXX    ............................  "
};
