/* XPM */
static char *left_5[] = {
/* columns rows colors chars-per-pixel */
"64 64 4 1 ",
"  c #F77622",
". c #FEAE34",
"X c #639BFF",
"o c white",
/* pixels */
"XXXXXXXXXXXXXXXXXXXXXXooXXXXXX    ..........................    ",
"XXXXXXXXXXXXXXXXXXXXXXooXXXXXX    ..........................    ",
"XXXXXXXXXXXXXXXXXXXXXXooXXXXXX    ..........................  ..",
"XXXXXXXXXXXXXXXXXXXXXXooXXXXXX    ..........................  ..",
"XXXXXXXXXXXXXXXXXXXXXXooooXXXXXX    ......................    ..",
"XXXXXXXXXXXXXXXXXXXXXXooooXXXXXX    ......................    ..",
"XXXXXXXXXXXXXXXXXXXXXXXXooXXXXXX    ......................    ..",
"XXXXXXXXXXXXXXXXXXXXXXXXooXXXXXX    ......................    ..",
"XXXXXXXXXXXXXXXXXXXXXXooooXXXXXX    ....................      ..",
"XXXXXXXXXXXXXXXXXXXXXXooooXXXXXX    ....................      ..",
"XXXXXXXXXXXXXXXXXXXXXXooXXXXXXXX    ..................      ....",
"XXXXXXXXXXXXXXXXXXXXXXooXXXXXXXX    ..................      ....",
"XXXXXXXXXXXXXXXXXXXXXXooXXXXXXXX    ................      ......",
"XXXXXXXXXXXXXXXXXXXXXXooXXXXXXXX    ................      ......",
"XXXXXXXXXXXXXXXXXXXXXXooXXXXXXXX  ................      ........",
"XXXXXXXXXXXXXXXXXXXXXXooXXXXXXXX  ................      ........",
"XXXXXXXXXXXXXXXXXXXXXXXXXXXXXX    ..............      ..........",
"XXXXXXXXXXXXXXXXXXXXXXXXXXXXXX    ..............      ..........",
"XXXXXXXXXXXXXXXXXXXXooXXXXXX      ..........        ............",
"XXXXXXXXXXXXXXXXXXXXooXXXXXX      ..........        ............",
"XXXXXXXXXXXXXXXXXXXXXXXXXXXX    ........          ..............",
"XXXXXXXXXXXXXXXXXXXXXXXXXXXX    ........          ..............",
"XXXXXXXXXXXXXXXXXXXXXXXXXXXX    ......          ................",
"XXXXXXXXXXXXXXXXXXXXXXXXXXXX    ......          ................",
"XXXXXXXXXXXXXXXXXXXXXXXXXXXX    ..          ....................",
"XXXXXXXXXXXXXXXXXXXXXXXXXXXX    ..          ....................",
"XXXXXXXXXXXXXXXXXXXXXXXXXXXX            ........................",
"XXXXXXXXXXXXXXXXXXXXXXXXXXXX            ........................",
"XXXXXXXXXXXXXXXXXXXXXXXXXXXX          ..........................",
"XXXXXXXXXXXXXXXXXXXXXXXXXXXX          ..........................",
"XXXXXXXXXXXXXXXXXXXXXXXXXXXX      ..............................",
"XXXXXXXXXXXXXXXXXXXXXXXXXXXX      ..............................",
"XXXXXXXXXXXXXXXXXXooXXXXXXXXXX    ..............................",
"XXXXXXXXXXXXXXXXXXooXXXXXXXXXX    ..............................",
"XXXXXXXXXXXXXXXXXXXXXXXXXXXXXX    ..............................",
"XXXXXXXXXXXXXXXXXXXXXXXXXXXXXX    ..............................",
"XXXXXXXXXXXXXXXXXXXXooXXXXXXXXXX  ..............................",
"XXXXXXXXXXXXXXXXXXXXooXXXXXXXXXX  ..............................",
"XXXXXXXXXXXXXXXXXXXXXXXXXXXXXXXX    ............................",
"XXXXXXXXXXXXXXXXXXXXXXXXXXXXXXXX    ............................",
"XXXXXXXXXXXXXXXXXXXXXXooXXXXXXXXXX  ............................",
"XXXXXXXXXXXXXXXXXXXXXXooXXXXXXXXXX  ............................",
"XXXXXXXXXXXXXXXXXXXXXXooooXXXXXXXX    ..........................",
"XXXXXXXXXXXXXXXXXXXXXXooooXXXXXXXX    ..........................",
"XXXXXXXXXXXXXXXXXXXXXXXXooXXXXXXXXXX  ..........................",
"XXXXXXXXXXXXXXXXXXXXXXXXooXXXXXXXXXX  ..........................",
"XXXXXXXXXXXXXXXXXXXXXXXXooXXXXXXXXXX    ........................",
"XXXXXXXXXXXXXXXXXXXXXXXXooXXXXXXXXXX    ........................",
"XXXXXXXXXXXXXXXXXXXXXXXXooXXXXXXXXXX    ........................",
"XXXXXXXXXXXXXXXXXXXXXXXXooXXXXXXXXXX    ........................",
"XXXXXXXXXXXXXXXXXXXXXXXXooXXXXXXXXXX    ........................",
"XXXXXXXXXXXXXXXXXXXXXXXXooXXXXXXXXXX    ........................",
"XXXXXXXXXXXXXXXXXXXXXXXXooXXXXXXXXXX    ........................",
"XXXXXXXXXXXXXXXXXXXXXXXXooXXXXXXXXXX    ........................",
"XXXXXXXXXXXXXXXXXXXXXXooooXXXXXXXX    ..........................",
"XXXXXXXXXXXXXXXXXXXXXXooooXXXXXXXX    ..........................",
"XXXXXXXXXXXXXXXXXXXXXXooXXXXXXXX      ..........................",
"XXXXXXXXXXXXXXXXXXXXXXooXXXXXXXX      ..........................",
"XXXXXXXXXXXXXXXXXXXXXXXXXXXXXXXX    ..........................  ",
"XXXXXXXXXXXXXXXXXXXXXXXXXXXXXXXX    ..........................  ",
"XXXXXXXXXXXXXXXXXXXXXXXXXXXXXX    ............................  ",
"XXXXXXXXXXXXXXXXXXXXXXXXXXXXXX    ............................  ",
"XXXXXXXXXXXXXXXXXXXXooXXXXXXXX    ............................  ",
"XXXXXXXXXXXXXXXXXXXXooXXXXXXXX    ............................  "
};
