/* XPM */
static char *sea_left[] = {
/* columns rows colors chars-per-pixel */
"64 64 4 1 ",
"  c #F77622",
". c #FEAE34",
"X c #639BFF",
"o c white",
/* pixels */
"XXXXXXXXXXXXXXXXXXXXXXXXooXXXX    ..........................    ",
"XXXXXXXXXXXXXXXXXXXXXXXXooXXXX    ..........................    ",
"XXXXXXXXXXXXXXXXXXXXXXXXooXXXX    ..........................  ..",
"XXXXXXXXXXXXXXXXXXXXXXXXooXXXX    ..........................  ..",
"XXXXXXXXXXXXXXXXXXXXXXXXooooXXXX    ......................    ..",
"XXXXXXXXXXXXXXXXXXXXXXXXooooXXXX    ......................    ..",
"XXXXXXXXXXXXXXXXXXXXXXXXXXooXXXX    ......................    ..",
"XXXXXXXXXXXXXXXXXXXXXXXXXXooXXXX    ......................    ..",
"XXXXXXXXXXXXXXXXXXXXXXXXooooXXXX    ....................      ..",
"XXXXXXXXXXXXXXXXXXXXXXXXooooXXXX    ....................      ..",
"XXXXXXXXXXXXXXXXXXXXXXXXooXXXXXX    ..................      ....",
"XXXXXXXXXXXXXXXXXXXXXXXXooXXXXXX    ..................      ....",
"XXXXXXXXXXXXXXXXXXXXXXXXooXXXXXX    ................      ......",
"XXXXXXXXXXXXXXXXXXXXXXXXooXXXXXX    ................      ......",
"XXXXXXXXXXXXXXXXXXXXXXXXooXXXXXX  ................      ........",
"XXXXXXXXXXXXXXXXXXXXXXXXooXXXXXX  ................      ........",
"XXXXXXXXXXXXXXXXXXXXXXXXXXXXXX    ..............      ..........",
"XXXXXXXXXXXXXXXXXXXXXXXXXXXXXX    ..............      ..........",
"XXXXXXXXXXXXXXXXXXXXXXooXXXX      ..........        ............",
"XXXXXXXXXXXXXXXXXXXXXXooXXXX      ..........        ............",
"XXXXXXXXXXXXXXXXXXXXXXXXXXXX    ........          ..............",
"XXXXXXXXXXXXXXXXXXXXXXXXXXXX    ........          ..............",
"XXXXXXXXXXXXXXXXXXXXXXXXXXXX    ......          ................",
"XXXXXXXXXXXXXXXXXXXXXXXXXXXX    ......          ................",
"XXXXXXXXXXXXXXXXXXXXXXXXXXXX    ..          ....................",
"XXXXXXXXXXXXXXXXXXXXXXXXXXXX    ..          ....................",
"XXXXXXXXXXXXXXXXXXXXXXXXXXXX            ........................",
"XXXXXXXXXXXXXXXXXXXXXXXXXXXX            ........................",
"XXXXXXXXXXXXXXXXXXXXXXXXXXXX          ..........................",
"XXXXXXXXXXXXXXXXXXXXXXXXXXXX          ..........................",
"XXXXXXXXXXXXXXXXXXXXXXXXXXXX      ..............................",
"XXXXXXXXXXXXXXXXXXXXXXXXXXXX      ..............................",
"XXXXXXXXXXXXXXXXXXXXXXooXXXXXX    ..............................",
"XXXXXXXXXXXXXXXXXXXXXXooXXXXXX    ..............................",
"XXXXXXXXXXXXXXXXXXXXXXXXXXXXXX    ..............................",
"XXXXXXXXXXXXXXXXXXXXXXXXXXXXXX    ..............................",
"XXXXXXXXXXXXXXXXXXXXXXXXooXXXXXX  ..............................",
"XXXXXXXXXXXXXXXXXXXXXXXXooXXXXXX  ..............................",
"XXXXXXXXXXXXXXXXXXXXXXXXXXXXXXXX    ............................",
"XXXXXXXXXXXXXXXXXXXXXXXXXXXXXXXX    ............................",
"XXXXXXXXXXXXXXXXXXXXXXXXXXooXXXXXX  ............................",
"XXXXXXXXXXXXXXXXXXXXXXXXXXooXXXXXX  ............................",
"XXXXXXXXXXXXXXXXXXXXXXXXXXooooXXXX    ..........................",
"XXXXXXXXXXXXXXXXXXXXXXXXXXooooXXXX    ..........................",
"XXXXXXXXXXXXXXXXXXXXXXXXXXXXooXXXXXX  ..........................",
"XXXXXXXXXXXXXXXXXXXXXXXXXXXXooXXXXXX  ..........................",
"XXXXXXXXXXXXXXXXXXXXXXXXXXXXooXXXXXX    ........................",
"XXXXXXXXXXXXXXXXXXXXXXXXXXXXooXXXXXX    ........................",
"XXXXXXXXXXXXXXXXXXXXXXXXXXXXooXXXXXX    ........................",
"XXXXXXXXXXXXXXXXXXXXXXXXXXXXooXXXXXX    ........................",
"XXXXXXXXXXXXXXXXXXXXXXXXXXXXooXXXXXX    ........................",
"XXXXXXXXXXXXXXXXXXXXXXXXXXXXooXXXXXX    ........................",
"XXXXXXXXXXXXXXXXXXXXXXXXXXXXooXXXXXX    ........................",
"XXXXXXXXXXXXXXXXXXXXXXXXXXXXooXXXXXX    ........................",
"XXXXXXXXXXXXXXXXXXXXXXXXXXooooXXXX    ..........................",
"XXXXXXXXXXXXXXXXXXXXXXXXXXooooXXXX    ..........................",
"XXXXXXXXXXXXXXXXXXXXXXXXXXooXXXX      ..........................",
"XXXXXXXXXXXXXXXXXXXXXXXXXXooXXXX      ..........................",
"XXXXXXXXXXXXXXXXXXXXXXXXXXXXXXXX    ..........................  ",
"XXXXXXXXXXXXXXXXXXXXXXXXXXXXXXXX    ..........................  ",
"XXXXXXXXXXXXXXXXXXXXXXXXXXXXXX    ............................  ",
"XXXXXXXXXXXXXXXXXXXXXXXXXXXXXX    ............................  ",
"XXXXXXXXXXXXXXXXXXXXXXXXooXXXX    ............................  ",
"XXXXXXXXXXXXXXXXXXXXXXXXooXXXX    ............................  "
};
