/* XPM */
static char *left_2[] = {
/* columns rows colors chars-per-pixel */
"64 64 4 1 ",
"  c #F77622",
". c #FEAE34",
"X c #639BFF",
"o c white",
/* pixels */
"XXXXXXXXXXXXXXXXXXXXXXooXXXXXX    ..........................    ",
"XXXXXXXXXXXXXXXXXXXXXXooXXXXXX    ..........................    ",
"XXXXXXXXXXXXXXXXXXXXXXooXXXXXX    ..........................  ..",
"XXXXXXXXXXXXXXXXXXXXXXooXXXXXX    ..........................  ..",
"XXXXXXXXXXXXXXXXXXXXXXooooXXXXXX    ......................    ..",
"XXXXXXXXXXXXXXXXXXXXXXooooXXXXXX    ......................    ..",
"XXXXXXXXXXXXXXXXXXXXXXXXooXXXXXX    ......................    ..",
"XXXXXXXXXXXXXXXXXXXXXXXXooXXXXXX    ......................    ..",
"XXXXXXXXXXXXXXXXXXXXXXooooXXXXXX    ....................      ..",
"XXXXXXXXXXXXXXXXXXXXXXooooXXXXXX    ....................      ..",
"XXXXXXXXXXXXXXXXXXXXXXooXXXXXXXX    ..................      ....",
"XXXXXXXXXXXXXXXXXXXXXXooXXXXXXXX    ..................      ....",
"XXXXXXXXXXXXXXXXXXXXXXooXXXXXXXX    ................      ......",
"XXXXXXXXXXXXXXXXXXXXXXooXXXXXXXX    ................      ......",
"XXXXXXXXXXXXXXXXXXXXXXooXXXXXXXX  ................      ........",
"XXXXXXXXXXXXXXXXXXXXXXooXXXXXXXX  ................      ........",
"XXXXXXXXXXXXXXXXXXXXXXXXXXXXXX    ..............      ..........",
"XXXXXXXXXXXXXXXXXXXXXXXXXXXXXX    ..............      ..........",
"XXXXXXXXXXXXXXXXXXXXooXXXXXX      ..........        ............",
"XXXXXXXXXXXXXXXXXXXXooXXXXXX      ..........        ............",
"XXXXXXXXXXXXXXXXXXXXXXXXXXXX    ........          ..............",
"XXXXXXXXXXXXXXXXXXXXXXXXXXXX    ........          ..............",
"XXXXXXXXXXXXXXXXXXXXXXXXXXXX    ......          ................",
"XXXXXXXXXXXXXXXXXXXXXXXXXXXX    ......          ................",
"XXXXXXXXXXXXXXXXXXXXXXXXXXXX    ..          ....................",
"XXXXXXXXXXXXXXXXXXXXXXXXXXXX    ..          ....................",
"XXXXXXXXXXXXXXXXXXXXXXXXXXXX            ........................",
"XXXXXXXXXXXXXXXXXXXXXXXXXXXX            ........................",
"XXXXXXXXXXXXXXXXXXXXXXXXXXXX          ..........................",
"XXXXXXXXXXXXXXXXXXXXXXXXXXXX          ..........................",
"XXXXXXXXXXXXXXXXXXXXXXXXXXXX      ..............................",
"XXXXXXXXXXXXXXXXXXXXXXXXXXXX      ..............................",
"XXXXXXXXXXXXXXXXXXXXooXXXXXXXX    ..............................",
"XXXXXXXXXXXXXXXXXXXXooXXXXXXXX    ..............................",
"XXXXXXXXXXXXXXXXXXXXXXXXXXXXXX    ..............................",
"XXXXXXXXXXXXXXXXXXXXXXXXXXXXXX    ..............................",
"XXXXXXXXXXXXXXXXXXXXXXooXXXXXXXX  ..............................",
"XXXXXXXXXXXXXXXXXXXXXXooXXXXXXXX  ..............................",
"XXXXXXXXXXXXXXXXXXXXXXXXXXXXXXXX    ............................",
"XXXXXXXXXXXXXXXXXXXXXXXXXXXXXXXX    ............................",
"XXXXXXXXXXXXXXXXXXXXXXXXooXXXXXXXX  ............................",
"XXXXXXXXXXXXXXXXXXXXXXXXooXXXXXXXX  ............................",
"XXXXXXXXXXXXXXXXXXXXXXXXooooXXXXXX    ..........................",
"XXXXXXXXXXXXXXXXXXXXXXXXooooXXXXXX    ..........................",
"XXXXXXXXXXXXXXXXXXXXXXXXXXooXXXXXXXX  ..........................",
"XXXXXXXXXXXXXXXXXXXXXXXXXXooXXXXXXXX  ..........................",
"XXXXXXXXXXXXXXXXXXXXXXXXXXooXXXXXXXX    ........................",
"XXXXXXXXXXXXXXXXXXXXXXXXXXooXXXXXXXX    ........................",
"XXXXXXXXXXXXXXXXXXXXXXXXXXooXXXXXXXX    ........................",
"XXXXXXXXXXXXXXXXXXXXXXXXXXooXXXXXXXX    ........................",
"XXXXXXXXXXXXXXXXXXXXXXXXXXooXXXXXXXX    ........................",
"XXXXXXXXXXXXXXXXXXXXXXXXXXooXXXXXXXX    ........................",
"XXXXXXXXXXXXXXXXXXXXXXXXXXooXXXXXXXX    ........................",
"XXXXXXXXXXXXXXXXXXXXXXXXXXooXXXXXXXX    ........................",
"XXXXXXXXXXXXXXXXXXXXXXXXooooXXXXXX    ..........................",
"XXXXXXXXXXXXXXXXXXXXXXXXooooXXXXXX    ..........................",
"XXXXXXXXXXXXXXXXXXXXXXXXooXXXXXX      ..........................",
"XXXXXXXXXXXXXXXXXXXXXXXXooXXXXXX      ..........................",
"XXXXXXXXXXXXXXXXXXXXXXXXXXXXXXXX    ..........................  ",
"XXXXXXXXXXXXXXXXXXXXXXXXXXXXXXXX    ..........................  ",
"XXXXXXXXXXXXXXXXXXXXXXXXXXXXXX    ............................  ",
"XXXXXXXXXXXXXXXXXXXXXXXXXXXXXX    ............................  ",
"XXXXXXXXXXXXXXXXXXXXXXooXXXXXX    ............................  ",
"XXXXXXXXXXXXXXXXXXXXXXooXXXXXX    ............................  "
};
