/* XPM */
static char *Beach_Tileset_03[] = {
/* columns rows colors chars-per-pixel */
"64 64 9 1 ",
"  c #181425",
". c #3F2832",
"X c #743F39",
"o c #FEAE34",
"O c #FEE761",
"+ c #8B9BB4",
"@ c #C0CBDC",
"# c white",
"$ c None",
/* pixels */
"$$$$$$$$$$$$$$$$$$$$$$$$$$$$$$$$$$$$$$$$$$$$$$$$$$$$$$$$$$$$$$$$",
"$$$$$$$$$$$$$$$$$$$$$$$$$$$$$$$$$$$$$$$$$$$$$$$$$$$$$$$$$$$$$$$$",
"$$$$$$$$$$$$$$$$$$$$$$$$$$$$$$$$$$$$$$$$$$$$$$$$$$$$$$$$$$$$$$$$",
"$$$$$$$$$$$$$$$$$$$$$$$$$$$$$$$$$$$$$$$$$$$$$$$$$$$$$$$$$$$$$$$$",
"$$$$$$$$$$$$$$$$$$$$$$$$$$$$$$    $$$$$$$$$$$$$$$$$$$$$$$$$$$$$$",
"$$$$$$$$$$$$$$$$$$$$$$$$$$$$$$    $$$$$$$$$$$$$$$$$$$$$$$$$$$$$$",
"$$$$$$$$$$$$$$$$$$$$$$$$$$$$  @@++  $$$$$$$$$$$$$$$$$$$$$$$$$$$$",
"$$$$$$$$$$$$$$$$$$$$$$$$$$$$  @@++  $$$$$$$$$$$$$$$$$$$$$$$$$$$$",
"$$$$$$$$$$$$$$####OO##OOOOOOOOOOOOOOOOOOOO####OO##$$$$$$$$$$$$$$",
"$$$$$$$$$$$$$$####OO##OOOOOOOOOOOOOOOOOOOO####OO##$$$$$$$$$$$$$$",
"$$$$$$$$$$$$$$ooXXXXXXXXXXXXXXXXXXXXXXXXXXXXXXXXoo$$$$$$$$$$$$$$",
"$$$$$$$$$$$$$$ooXXXXXXXXXXXXXXXXXXXXXXXXXXXXXXXXoo$$$$$$$$$$$$$$",
"$$$$$$$$$$$$$$oo................................oo$$$$$$$$$$$$$$",
"$$$$$$$$$$$$$$oo................................oo$$$$$$$$$$$$$$",
"$$$$$$$$$$$$$$oo................................oo$$$$$$$$$$$$$$",
"$$$$$$$$$$$$$$oo................................oo$$$$$$$$$$$$$$",
"$$$$$$$$$$$$$$oo................................oo$$$$$$$$$$$$$$",
"$$$$$$$$$$$$$$oo................................oo$$$$$$$$$$$$$$",
"$$$$$$$$$$$$$$ooXXXX........................XXXXoo$$$$$$$$$$$$$$",
"$$$$$$$$$$$$$$ooXXXX........................XXXXoo$$$$$$$$$$$$$$",
"$$$$$$$$$$$$$$ooXXXXXXXXXXXXXXXXXXXXXXXXXXXXXXXXoo$$$$$$$$$$$$$$",
"$$$$$$$$$$$$$$ooXXXXXXXXXXXXXXXXXXXXXXXXXXXXXXXXoo$$$$$$$$$$$$$$",
"$$$$$$$$$$$$$$oooooooooooooooooooooooooooooooooooo$$$$$$$$$$$$$$",
"$$$$$$$$$$$$$$oooooooooooooooooooooooooooooooooooo$$$$$$$$$$$$$$",
"$$$$$$$$$$$$$$ooXXXXXXXXXXXXXXXXXXXXXXXXXXXXXXXXoo$$$$$$$$$$$$$$",
"$$$$$$$$$$$$$$ooXXXXXXXXXXXXXXXXXXXXXXXXXXXXXXXXoo$$$$$$$$$$$$$$",
"$$$$$$$$$$$$$$OOXXXX........................XXXXOO$$$$$$$$$$$$$$",
"$$$$$$$$$$$$$$OOXXXX........................XXXXOO$$$$$$$$$$$$$$",
"$$$$$$$$$$$$$$OO..........                ......OO$$$$$$$$$$$$$$",
"$$$$$$$$$$$$$$OO..........                ......OO$$$$$$$$$$$$$$",
"$$$$$$$$$$$$$$##                                ##$$$$$$$$$$$$$$",
"$$$$$$$$$$$$$$##                                ##$$$$$$$$$$$$$$",
"$$$$$$$$$$$$$$####OO##OOOOOOOOOOOOOOOOOOOO##OO####$$$$$$$$$$$$$$",
"$$$$$$$$$$$$$$####OO##OOOOOOOOOOOOOOOOOOOO##OO####$$$$$$$$$$$$$$",
"$$$$$$$$$$$$$$##................................##$$$$$$$$$$$$$$",
"$$$$$$$$$$$$$$##................................##$$$$$$$$$$$$$$",
"$$$$$$$$$$$$$$OO..XXXXXXXXXXXXXXXXXXXXXXXXXXXX..OO$$$$$$$$$$$$$$",
"$$$$$$$$$$$$$$OO..XXXXXXXXXXXXXXXXXXXXXXXXXXXX..OO$$$$$$$$$$$$$$",
"$$$$$$$$$$$$$$OO..XXXXXXXXXXXXXXXXXXXXXXXXXXXX..OO$$$$$$$$$$$$$$",
"$$$$$$$$$$$$$$OO..XXXXXXXXXXXXXXXXXXXXXXXXXXXX..OO$$$$$$$$$$$$$$",
"$$$$$$$$$$$$$$OO..XXXXXXXXXXXXXXXXXXXXXXXXXXXX..OO$$$$$$$$$$$$$$",
"$$$$$$$$$$$$$$OO..XXXXXXXXXXXXXXXXXXXXXXXXXXXX..OO$$$$$$$$$$$$$$",
"$$$$$$$$$$$$$$  OOXXXXXXXXXXXXXXXXXXXXXXXXXXXXOO  $$$$$$$$$$$$$$",
"$$$$$$$$$$$$$$  OOXXXXXXXXXXXXXXXXXXXXXXXXXXXXOO  $$$$$$$$$$$$$$",
"$$$$$$$$$$$$$$oo  OOOO##################OO##OO  oo$$$$$$$$$$$$$$",
"$$$$$$$$$$$$$$oo  OOOO##################OO##OO  oo$$$$$$$$$$$$$$",
"$$$$$$$$$$$$$$$$$$$$$$$$$$$$$$$$$$$$$$$$$$$$$$$$$$$$$$$$$$$$$$$$",
"$$$$$$$$$$$$$$$$$$$$$$$$$$$$$$$$$$$$$$$$$$$$$$$$$$$$$$$$$$$$$$$$",
"$$$$$$$$$$$$$$$$$$$$$$$$$$$$$$$$$$$$$$$$$$$$$$$$$$$$$$$$$$$$$$$$",
"$$$$$$$$$$$$$$$$$$$$$$$$$$$$$$$$$$$$$$$$$$$$$$$$$$$$$$$$$$$$$$$$",
"$$$$$$$$$$$$$$$$$$$$$$$$$$$$$$$$$$$$$$$$$$$$$$$$$$$$$$$$$$$$$$$$",
"$$$$$$$$$$$$$$$$$$$$$$$$$$$$$$$$$$$$$$$$$$$$$$$$$$$$$$$$$$$$$$$$",
"$$$$$$$$$$$$$$$$$$$$$$$$$$$$$$$$$$$$$$$$$$$$$$$$$$$$$$$$$$$$$$$$",
"$$$$$$$$$$$$$$$$$$$$$$$$$$$$$$$$$$$$$$$$$$$$$$$$$$$$$$$$$$$$$$$$",
"$$$$$$$$$$$$$$$$$$$$$$$$$$$$$$$$$$$$$$$$$$$$$$$$$$$$$$$$$$$$$$$$",
"$$$$$$$$$$$$$$$$$$$$$$$$$$$$$$$$$$$$$$$$$$$$$$$$$$$$$$$$$$$$$$$$",
"$$$$$$$$$$$$$$$$$$$$$$$$$$$$$$$$$$$$$$$$$$$$$$$$$$$$$$$$$$$$$$$$",
"$$$$$$$$$$$$$$$$$$$$$$$$$$$$$$$$$$$$$$$$$$$$$$$$$$$$$$$$$$$$$$$$",
"$$$$$$$$$$$$$$$$$$$$$$$$$$$$$$$$$$$$$$$$$$$$$$$$$$$$$$$$$$$$$$$$",
"$$$$$$$$$$$$$$$$$$$$$$$$$$$$$$$$$$$$$$$$$$$$$$$$$$$$$$$$$$$$$$$$",
"$$$$$$$$$$$$$$$$$$$$$$$$$$$$$$$$$$$$$$$$$$$$$$$$$$$$$$$$$$$$$$$$",
"$$$$$$$$$$$$$$$$$$$$$$$$$$$$$$$$$$$$$$$$$$$$$$$$$$$$$$$$$$$$$$$$",
"$$$$$$$$$$$$$$$$$$$$$$$$$$$$$$$$$$$$$$$$$$$$$$$$$$$$$$$$$$$$$$$$",
"$$$$$$$$$$$$$$$$$$$$$$$$$$$$$$$$$$$$$$$$$$$$$$$$$$$$$$$$$$$$$$$$"
};
