/* XPM */
static char *Beach_Tileset_04[] = {
/* columns rows colors chars-per-pixel */
"64 64 12 1 ",
"  c #181425",
". c #3F2832",
"X c #743F39",
"o c #63C74D",
"O c #FEAE34",
"+ c #FEE761",
"@ c #124E89",
"# c #2CE8F5",
"$ c #8B9BB4",
"% c #C0CBDC",
"& c white",
"* c None",
/* pixels */
"****************************************************************",
"****************************************************************",
"****************************************************************",
"****************************************************************",
"******************************    ******************************",
"******************************    ******************************",
"****************************  %%$$  ****************************",
"****************************  %%$$  ****************************",
"**************&&&&++&&++++++++++++++++++++&&&&++&&**************",
"**************&&&&++&&++++++++++++++++++++&&&&++&&**************",
"**************OOXXXXXXXXXXXXXXXXXXXXXXXXXXXXXXXXOO**************",
"**************OOXXXXXXXXXXXXXXXXXXXXXXXXXXXXXXXXOO**************",
"**************OO................................OO**************",
"**************OO................................OO**************",
"**************OO................................OO**************",
"**************OO................................OO**************",
"**************OO................................OO**************",
"**************OO................................OO**************",
"**************OOXXXX........................XXXXOO**************",
"**************OOXXXX........................XXXXOO**************",
"**************OOXXXXXXXXXXXXXXXXXXXXXXXXXXXXXXXXOO**************",
"**************OOXXXXXXXXXXXXXXXXXXXXXXXXXXXXXXXXOO**************",
"**************OOOOOOOOOOOOOOOOOOOOOOOOOOOOOOOOOOOO**************",
"**************OOOOOOOOOOOOOOOOOOOOOOOOOOOOOOOOOOOO**************",
"**************OOXXXXXXXXXXXXXXXXXXXXXXXXXXXXXXXXOO**************",
"**************OOXXXXXXXXXXXXXXXXXXXXXXXXXXXXXXXXOO**************",
"**************++XXXX........&&++oo&&++......XXXX++**************",
"**************++XXXX........&&++oo&&++......XXXX++**************",
"**************++......&&&&##++++++++++&&OO......++**************",
"**************++......&&&&##++++++++++&&OO......++**************",
"**************&&  OO@@OOOOOO&&OOOOOOOOOOOOoo    &&**************",
"**************&&  OO@@OOOOOO&&OOOOOOOOOOOOoo    &&**************",
"**************&&&&++&&++++++++++++++++++++&&++&&&&**************",
"**************&&&&++&&++++++++++++++++++++&&++&&&&**************",
"**************&&................................&&**************",
"**************&&................................&&**************",
"**************++..XXXXXXXXXXXXXXXXXXXXXXXXXXXX..++**************",
"**************++..XXXXXXXXXXXXXXXXXXXXXXXXXXXX..++**************",
"**************++..XXXXXXXXXXXXXXXXXXXXXXXXXXXX..++**************",
"**************++..XXXXXXXXXXXXXXXXXXXXXXXXXXXX..++**************",
"**************++..XXXXXXXXXXXXXXXXXXXXXXXXXXXX..++**************",
"**************++..XXXXXXXXXXXXXXXXXXXXXXXXXXXX..++**************",
"**************  ++XXXXXXXXXXXXXXXXXXXXXXXXXXXX++  **************",
"**************  ++XXXXXXXXXXXXXXXXXXXXXXXXXXXX++  **************",
"**************OO  ++++&&&&&&&&&&&&&&&&&&++&&++  OO**************",
"**************OO  ++++&&&&&&&&&&&&&&&&&&++&&++  OO**************",
"****************************************************************",
"****************************************************************",
"****************************************************************",
"****************************************************************",
"****************************************************************",
"****************************************************************",
"****************************************************************",
"****************************************************************",
"****************************************************************",
"****************************************************************",
"****************************************************************",
"****************************************************************",
"****************************************************************",
"****************************************************************",
"****************************************************************",
"****************************************************************",
"****************************************************************",
"****************************************************************"
};
