/* XPM */
static char *sea_top_01[] = {
/* columns rows colors chars-per-pixel */
"64 64 4 1 ",
"  c #F77622",
". c #FEAE34",
"X c #639BFF",
"o c white",
/* pixels */
"XXXXXXXXXXXXXXXXXXXXXXXXXXXXXXXXXXXXXXXXXXXXXXXXXXXXXXXXXXXXXXXX",
"XXXXXXXXXXXXXXXXXXXXXXXXXXXXXXXXXXXXXXXXXXXXXXXXXXXXXXXXXXXXXXXX",
"XXXXXXXXXXXXXXXXXXXXXXXXXXXXXXXXXXXXXXXXXXXXXXXXXXXXXXXXXXXXXXXX",
"XXXXXXXXXXXXXXXXXXXXXXXXXXXXXXXXXXXXXXXXXXXXXXXXXXXXXXXXXXXXXXXX",
"XXXXXXXXXXXXXXXXXXXXXXXXXXXXXXXXXXXXXXXXXXXXXXXXXXXXXXXXXXXXXXXX",
"XXXXXXXXXXXXXXXXXXXXXXXXXXXXXXXXXXXXXXXXXXXXXXXXXXXXXXXXXXXXXXXX",
"XXXXXXXXXXXXXXXXXXXXXXXXXXXXXXXXXXXXXXXXXXXXXXXXXXXXXXXXXXXXXXXX",
"XXXXXXXXXXXXXXXXXXXXXXXXXXXXXXXXXXXXXXXXXXXXXXXXXXXXXXXXXXXXXXXX",
"XXXXXXXXXXXXXXXXXXXXXXXXXXXXXXXXXXXXXXXXXXXXXXXXXXXXXXXXXXXXXXXX",
"XXXXXXXXXXXXXXXXXXXXXXXXXXXXXXXXXXXXXXXXXXXXXXXXXXXXXXXXXXXXXXXX",
"XXXXXXXXXXXXXXXXXXXXXXXXXXXXXXXXXXXXXXXXXXXXXXXXXXXXXXXXXXXXXXXX",
"XXXXXXXXXXXXXXXXXXXXXXXXXXXXXXXXXXXXXXXXXXXXXXXXXXXXXXXXXXXXXXXX",
"XXXXXXXXXXXXXXXXXXXXXXXXXXXXXXXXXXXXXXXXXXXXXXXXXXXXXXXXXXXXXXXX",
"XXXXXXXXXXXXXXXXXXXXXXXXXXXXXXXXXXXXXXXXXXXXXXXXXXXXXXXXXXXXXXXX",
"XXXXXXXXXXXXXXXXXXXXXXXXXXXXXXXXXXXXXXXXXXXXXXXXXXXXXXXXXXXXXXXX",
"XXXXXXXXXXXXXXXXXXXXXXXXXXXXXXXXXXXXXXXXXXXXXXXXXXXXXXXXXXXXXXXX",
"XXXXXXXXXXXXXXXXXXXXXXXXXXXXXXXXXXXXXXXXXXXXXXXXXXXXXXXXXXXXXXXX",
"XXXXXXXXXXXXXXXXXXXXXXXXXXXXXXXXXXXXXXXXXXXXXXXXXXXXXXXXXXXXXXXX",
"XXXXXXXXXXXXXXXXXXXXXXXXXXXXXXXXXXXXXXXXXXXXXXXXXXXXXXXXXXXXXXXX",
"XXXXXXXXXXXXXXXXXXXXXXXXXXXXXXXXXXXXXXXXXXXXXXXXXXXXXXXXXXXXXXXX",
"XXXXXXXXXXXXXXXXXXXXXXXXXXXXXXXXXXXXXXXXXXXXXXXXXXXXXXXXXXXXXXXX",
"XXXXXXXXXXXXXXXXXXXXXXXXXXXXXXXXXXXXXXXXXXXXXXXXXXXXXXXXXXXXXXXX",
"ooXXXXXXXXXXXXXXXXXXXXXXXXooXXXXXXXXXXXXXXXXXXXXXXXXXXXXXXXXXXXX",
"ooXXXXXXXXXXXXXXXXXXXXXXXXooXXXXXXXXXXXXXXXXXXXXXXXXXXXXXXXXXXXX",
"XXXXXXooooXXXXXXXXXXooooXXXXXXXXXXXXXXXXXXXXXXXXXXXXXXXXXXXXXXXX",
"XXXXXXooooXXXXXXXXXXooooXXXXXXXXXXXXXXXXXXXXXXXXooooooooXXoooooo",
"XXXXXXXXooooooooooooooXXXXXXXXXXXXXXXXXXXXXXXXXXooooooooXXoooooo",
"XXXXXXXXooooooooooooooXXXXXXXXXXXXXXXXXXXXXXXXXXXXXXXXooooooXXXX",
"XXXXXXXXXXXXXXXXXXXXXXXXXXXXXXXX              XXXXXXXXooooooXXXX",
"XXXXXXXXXXXXXXXXXXXXXXXXXXXXXXXX              XXXXXXXXXXXXXXXXXX",
"    XXXXXXXXXXXXXXXXXXXXXXXX                    XXXXXXXXXXXX    ",
"    XXXXXXXXXXXXXXXXXXXXXXXX                    XXXXXXXXXXXX    ",
"        XXXXXXXXXXXXXXXX            ........                    ",
"        XXXXXXXXXXXXXXXX            ........                    ",
"....      XXXXXXXXXX      ........................          ....",
"....      XXXXXXXXXX      ........................          ....",
"......                ..........................................",
"......                ..........................................",
"..........        ..............................................",
"..........        ..............................................",
"....          ..................................................",
"....          ..................................................",
"..        ......................................................",
"..        ......................................................",
"..        ......................................................",
"..        ......................................................",
"..      ........................................................",
"..      ........................................................",
"      ..........................................................",
"      ..........................................................",
"      ..........................................................",
"      ..........................................................",
"    ............................................................",
"    ............................................................",
"    ............................................................",
"    ............................................................",
"  ..............................................................",
"  ..............................................................",
"  ............................................................  ",
"  ............................................................  ",
"..............................................................  ",
"..............................................................  ",
"..............................................................  ",
"..............................................................  "
};
