/* XPM */
static char *right_2[] = {
/* columns rows colors chars-per-pixel */
"64 64 4 1 ",
"  c #F77622",
". c #FEAE34",
"X c #639BFF",
"o c white",
/* pixels */
"..............................    XXXXXXooXXXXXXXXXXXXXXXXXXXXXX",
"..............................    XXXXXXooXXXXXXXXXXXXXXXXXXXXXX",
"..............................    XXXXXXooXXXXXXXXXXXXXXXXXXXXXX",
"..............................    XXXXXXooXXXXXXXXXXXXXXXXXXXXXX",
"............................    XXXXXXooooXXXXXXXXXXXXXXXXXXXXXX",
"............................    XXXXXXooooXXXXXXXXXXXXXXXXXXXXXX",
"............................    XXXXXXooXXXXXXXXXXXXXXXXXXXXXXXX",
"............................    XXXXXXooXXXXXXXXXXXXXXXXXXXXXXXX",
"............................    XXXXXXooooXXXXXXXXXXXXXXXXXXXXXX",
"............................    XXXXXXooooXXXXXXXXXXXXXXXXXXXXXX",
"............................    XXXXXXXXooXXXXXXXXXXXXXXXXXXXXXX",
"............................    XXXXXXXXooXXXXXXXXXXXXXXXXXXXXXX",
"............................    XXXXXXXXooXXXXXXXXXXXXXXXXXXXXXX",
"............................    XXXXXXXXooXXXXXXXXXXXXXXXXXXXXXX",
"..............................  XXXXXXXXooXXXXXXXXXXXXXXXXXXXXXX",
"..............................  XXXXXXXXooXXXXXXXXXXXXXXXXXXXXXX",
"..............................    XXXXXXXXXXXXXXXXXXXXXXXXXXXXXX",
"..............................    XXXXXXXXXXXXXXXXXXXXXXXXXXXXXX",
"..............................      XXXXXXooXXXXXXXXXXXXXXXXXXXX",
"..............................      XXXXXXooXXXXXXXXXXXXXXXXXXXX",
"................................    XXXXXXXXXXXXXXXXXXXXXXXXXXXX",
"................................    XXXXXXXXXXXXXXXXXXXXXXXXXXXX",
"................................    XXXXXXXXXXXXXXXXXXXXXXXXXXXX",
"................................    XXXXXXXXXXXXXXXXXXXXXXXXXXXX",
"................................    XXXXXXXXXXXXXXXXXXXXXXXXXXXX",
"................................    XXXXXXXXXXXXXXXXXXXXXXXXXXXX",
"..........................          XXXXXXXXXXXXXXXXXXXXXXXXXXXX",
"..........................          XXXXXXXXXXXXXXXXXXXXXXXXXXXX",
"......................              XXXXXXXXXXXXXXXXXXXXXXXXXXXX",
"......................              XXXXXXXXXXXXXXXXXXXXXXXXXXXX",
"................          ....      XXXXXXXXXXXXXXXXXXXXXXXXXXXX",
"................          ....      XXXXXXXXXXXXXXXXXXXXXXXXXXXX",
"............              ....    XXXXXXXXXooXXXXXXXXXXXXXXXXXXX",
"............              ....    XXXXXXXXXooXXXXXXXXXXXXXXXXXXX",
"........              ........    XXXXXXXXXXXXXXXXXXXXXXXXXXXXXX",
"........              ........    XXXXXXXXXXXXXXXXXXXXXXXXXXXXXX",
"......              ..........  XXXXXXXXXooXXXXXXXXXXXXXXXXXXXXX",
"......              ..........  XXXXXXXXXooXXXXXXXXXXXXXXXXXXXXX",
"....            ............    XXXXXXXXXXXXXXXXXXXXXXXXXXXXXXXX",
"....            ............    XXXXXXXXXXXXXXXXXXXXXXXXXXXXXXXX",
"....          ..............  XXXXXXXXXooXXXXXXXXXXXXXXXXXXXXXXX",
"....          ..............  XXXXXXXXXooXXXXXXXXXXXXXXXXXXXXXXX",
"..        ................    XXXXXXXooooXXXXXXXXXXXXXXXXXXXXXXX",
"..        ................    XXXXXXXooooXXXXXXXXXXXXXXXXXXXXXXX",
"..        ................  XXXXXXXXXooXXXXXXXXXXXXXXXXXXXXXXXXX",
"..        ................  XXXXXXXXXooXXXXXXXXXXXXXXXXXXXXXXXXX",
"..      ..................  XXXXXXXXXooXXXXXXXXXXXXXXXXXXXXXXXXX",
"..      ..................  XXXXXXXXXooXXXXXXXXXXXXXXXXXXXXXXXXX",
"      ....................  XXXXXXXXXooXXXXXXXXXXXXXXXXXXXXXXXXX",
"      ....................  XXXXXXXXXooXXXXXXXXXXXXXXXXXXXXXXXXX",
"      ....................  XXXXXXXXXooXXXXXXXXXXXXXXXXXXXXXXXXX",
"      ....................  XXXXXXXXXooXXXXXXXXXXXXXXXXXXXXXXXXX",
"    ......................  XXXXXXXXXooXXXXXXXXXXXXXXXXXXXXXXXXX",
"    ......................  XXXXXXXXXooXXXXXXXXXXXXXXXXXXXXXXXXX",
"    ......................    XXXXXXXooooXXXXXXXXXXXXXXXXXXXXXXX",
"    ......................    XXXXXXXooooXXXXXXXXXXXXXXXXXXXXXXX",
"  ........................      XXXXXXXooXXXXXXXXXXXXXXXXXXXXXXX",
"  ........................      XXXXXXXooXXXXXXXXXXXXXXXXXXXXXXX",
"  ..........................    XXXXXXXXXXXXXXXXXXXXXXXXXXXXXXXX",
"  ..........................    XXXXXXXXXXXXXXXXXXXXXXXXXXXXXXXX",
"..............................    XXXXXXXXXXXXXXXXXXXXXXXXXXXXXX",
"..............................    XXXXXXXXXXXXXXXXXXXXXXXXXXXXXX",
"..............................    XXXXXXXooXXXXXXXXXXXXXXXXXXXXX",
"..............................    XXXXXXXooXXXXXXXXXXXXXXXXXXXXX"
};
