/* XPM */
static char *right_1[] = {
/* columns rows colors chars-per-pixel */
"64 64 4 1 ",
"  c #F77622",
". c #FEAE34",
"X c #639BFF",
"o c white",
/* pixels */
"..............................    XXXXXXooXXXXXXXXXXXXXXXXXXXXXX",
"..............................    XXXXXXooXXXXXXXXXXXXXXXXXXXXXX",
"..............................    XXXXXXooXXXXXXXXXXXXXXXXXXXXXX",
"..............................    XXXXXXooXXXXXXXXXXXXXXXXXXXXXX",
"............................    XXXXXXooooXXXXXXXXXXXXXXXXXXXXXX",
"............................    XXXXXXooooXXXXXXXXXXXXXXXXXXXXXX",
"............................    XXXXXXooXXXXXXXXXXXXXXXXXXXXXXXX",
"............................    XXXXXXooXXXXXXXXXXXXXXXXXXXXXXXX",
"............................    XXXXXXooooXXXXXXXXXXXXXXXXXXXXXX",
"............................    XXXXXXooooXXXXXXXXXXXXXXXXXXXXXX",
"............................    XXXXXXXXooXXXXXXXXXXXXXXXXXXXXXX",
"............................    XXXXXXXXooXXXXXXXXXXXXXXXXXXXXXX",
"............................    XXXXXXXXooXXXXXXXXXXXXXXXXXXXXXX",
"............................    XXXXXXXXooXXXXXXXXXXXXXXXXXXXXXX",
"..............................  XXXXXXXXooXXXXXXXXXXXXXXXXXXXXXX",
"..............................  XXXXXXXXooXXXXXXXXXXXXXXXXXXXXXX",
"..............................    XXXXXXXXXXXXXXXXXXXXXXXXXXXXXX",
"..............................    XXXXXXXXXXXXXXXXXXXXXXXXXXXXXX",
"..............................      XXXXXXooXXXXXXXXXXXXXXXXXXXX",
"..............................      XXXXXXooXXXXXXXXXXXXXXXXXXXX",
"................................    XXXXXXXXXXXXXXXXXXXXXXXXXXXX",
"................................    XXXXXXXXXXXXXXXXXXXXXXXXXXXX",
"................................    XXXXXXXXXXXXXXXXXXXXXXXXXXXX",
"................................    XXXXXXXXXXXXXXXXXXXXXXXXXXXX",
"................................    XXXXXXXXXXXXXXXXXXXXXXXXXXXX",
"................................    XXXXXXXXXXXXXXXXXXXXXXXXXXXX",
"..........................          XXXXXXXXXXXXXXXXXXXXXXXXXXXX",
"..........................          XXXXXXXXXXXXXXXXXXXXXXXXXXXX",
"......................              XXXXXXXXXXXXXXXXXXXXXXXXXXXX",
"......................              XXXXXXXXXXXXXXXXXXXXXXXXXXXX",
"................          ....      XXXXXXXXXXXXXXXXXXXXXXXXXXXX",
"................          ....      XXXXXXXXXXXXXXXXXXXXXXXXXXXX",
"............              ....    XXXXXXooXXXXXXXXXXXXXXXXXXXXXX",
"............              ....    XXXXXXooXXXXXXXXXXXXXXXXXXXXXX",
"........              ........    XXXXXXXXXXXXXXXXXXXXXXXXXXXXXX",
"........              ........    XXXXXXXXXXXXXXXXXXXXXXXXXXXXXX",
"......              ..........  XXXXXXooXXXXXXXXXXXXXXXXXXXXXXXX",
"......              ..........  XXXXXXooXXXXXXXXXXXXXXXXXXXXXXXX",
"....            ............    XXXXXXXXXXXXXXXXXXXXXXXXXXXXXXXX",
"....            ............    XXXXXXXXXXXXXXXXXXXXXXXXXXXXXXXX",
"....          ..............  XXXXXXooXXXXXXXXXXXXXXXXXXXXXXXXXX",
"....          ..............  XXXXXXooXXXXXXXXXXXXXXXXXXXXXXXXXX",
"..        ................    XXXXooooXXXXXXXXXXXXXXXXXXXXXXXXXX",
"..        ................    XXXXooooXXXXXXXXXXXXXXXXXXXXXXXXXX",
"..        ................  XXXXXXooXXXXXXXXXXXXXXXXXXXXXXXXXXXX",
"..        ................  XXXXXXooXXXXXXXXXXXXXXXXXXXXXXXXXXXX",
"..      ..................  XXXXXXooXXXXXXXXXXXXXXXXXXXXXXXXXXXX",
"..      ..................  XXXXXXooXXXXXXXXXXXXXXXXXXXXXXXXXXXX",
"      ....................  XXXXXXooXXXXXXXXXXXXXXXXXXXXXXXXXXXX",
"      ....................  XXXXXXooXXXXXXXXXXXXXXXXXXXXXXXXXXXX",
"      ....................  XXXXXXooXXXXXXXXXXXXXXXXXXXXXXXXXXXX",
"      ....................  XXXXXXooXXXXXXXXXXXXXXXXXXXXXXXXXXXX",
"    ......................  XXXXXXooXXXXXXXXXXXXXXXXXXXXXXXXXXXX",
"    ......................  XXXXXXooXXXXXXXXXXXXXXXXXXXXXXXXXXXX",
"    ......................    XXXXooooXXXXXXXXXXXXXXXXXXXXXXXXXX",
"    ......................    XXXXooooXXXXXXXXXXXXXXXXXXXXXXXXXX",
"  ........................      XXXXooXXXXXXXXXXXXXXXXXXXXXXXXXX",
"  ........................      XXXXooXXXXXXXXXXXXXXXXXXXXXXXXXX",
"  ..........................    XXXXXXXXXXXXXXXXXXXXXXXXXXXXXXXX",
"  ..........................    XXXXXXXXXXXXXXXXXXXXXXXXXXXXXXXX",
"..............................    XXXXXXXXXXXXXXXXXXXXXXXXXXXXXX",
"..............................    XXXXXXXXXXXXXXXXXXXXXXXXXXXXXX",
"..............................    XXXXooXXXXXXXXXXXXXXXXXXXXXXXX",
"..............................    XXXXooXXXXXXXXXXXXXXXXXXXXXXXX"
};
