/* XPM */
static char *right_4[] = {
/* columns rows colors chars-per-pixel */
"64 64 4 1 ",
"  c #F77622",
". c #FEAE34",
"X c #639BFF",
"o c white",
/* pixels */
"..............................    XXXXXXXooXXXXXXXXXXXXXXXXXXXXX",
"..............................    XXXXXXXooXXXXXXXXXXXXXXXXXXXXX",
"..............................    XXXXXXXooXXXXXXXXXXXXXXXXXXXXX",
"..............................    XXXXXXXooXXXXXXXXXXXXXXXXXXXXX",
"............................    XXXXXXXooooXXXXXXXXXXXXXXXXXXXXX",
"............................    XXXXXXXooooXXXXXXXXXXXXXXXXXXXXX",
"............................    XXXXXXXooXXXXXXXXXXXXXXXXXXXXXXX",
"............................    XXXXXXXooXXXXXXXXXXXXXXXXXXXXXXX",
"............................    XXXXXXXooooXXXXXXXXXXXXXXXXXXXXX",
"............................    XXXXXXXooooXXXXXXXXXXXXXXXXXXXXX",
"............................    XXXXXXXXXooXXXXXXXXXXXXXXXXXXXXX",
"............................    XXXXXXXXXooXXXXXXXXXXXXXXXXXXXXX",
"............................    XXXXXXXXXooXXXXXXXXXXXXXXXXXXXXX",
"............................    XXXXXXXXXooXXXXXXXXXXXXXXXXXXXXX",
"..............................  XXXXXXXXXooXXXXXXXXXXXXXXXXXXXXX",
"..............................  XXXXXXXXXooXXXXXXXXXXXXXXXXXXXXX",
"..............................    XXXXXXXXXXXXXXXXXXXXXXXXXXXXXX",
"..............................    XXXXXXXXXXXXXXXXXXXXXXXXXXXXXX",
"..............................      XXXXXXXooXXXXXXXXXXXXXXXXXXX",
"..............................      XXXXXXXooXXXXXXXXXXXXXXXXXXX",
"................................    XXXXXXXXXXXXXXXXXXXXXXXXXXXX",
"................................    XXXXXXXXXXXXXXXXXXXXXXXXXXXX",
"................................    XXXXXXXXXXXXXXXXXXXXXXXXXXXX",
"................................    XXXXXXXXXXXXXXXXXXXXXXXXXXXX",
"................................    XXXXXXXXXXXXXXXXXXXXXXXXXXXX",
"................................    XXXXXXXXXXXXXXXXXXXXXXXXXXXX",
"..........................          XXXXXXXXXXXXXXXXXXXXXXXXXXXX",
"..........................          XXXXXXXXXXXXXXXXXXXXXXXXXXXX",
"......................              XXXXXXXXXXXXXXXXXXXXXXXXXXXX",
"......................              XXXXXXXXXXXXXXXXXXXXXXXXXXXX",
"................          ....      XXXXXXXXXXXXXXXXXXXXXXXXXXXX",
"................          ....      XXXXXXXXXXXXXXXXXXXXXXXXXXXX",
"............              ....    XXXXXXXooXXXXXXXXXXXXXXXXXXXXX",
"............              ....    XXXXXXXooXXXXXXXXXXXXXXXXXXXXX",
"........              ........    XXXXXXXXXXXXXXXXXXXXXXXXXXXXXX",
"........              ........    XXXXXXXXXXXXXXXXXXXXXXXXXXXXXX",
"......              ..........  XXXXXXXooXXXXXXXXXXXXXXXXXXXXXXX",
"......              ..........  XXXXXXXooXXXXXXXXXXXXXXXXXXXXXXX",
"....            ............    XXXXXXXXXXXXXXXXXXXXXXXXXXXXXXXX",
"....            ............    XXXXXXXXXXXXXXXXXXXXXXXXXXXXXXXX",
"....          ..............  XXXXXXXooXXXXXXXXXXXXXXXXXXXXXXXXX",
"....          ..............  XXXXXXXooXXXXXXXXXXXXXXXXXXXXXXXXX",
"..        ................    XXXXXooooXXXXXXXXXXXXXXXXXXXXXXXXX",
"..        ................    XXXXXooooXXXXXXXXXXXXXXXXXXXXXXXXX",
"..        ................  XXXXXXXooXXXXXXXXXXXXXXXXXXXXXXXXXXX",
"..        ................  XXXXXXXooXXXXXXXXXXXXXXXXXXXXXXXXXXX",
"..      ..................  XXXXXXXooXXXXXXXXXXXXXXXXXXXXXXXXXXX",
"..      ..................  XXXXXXXooXXXXXXXXXXXXXXXXXXXXXXXXXXX",
"      ....................  XXXXXXXooXXXXXXXXXXXXXXXXXXXXXXXXXXX",
"      ....................  XXXXXXXooXXXXXXXXXXXXXXXXXXXXXXXXXXX",
"      ....................  XXXXXXXooXXXXXXXXXXXXXXXXXXXXXXXXXXX",
"      ....................  XXXXXXXooXXXXXXXXXXXXXXXXXXXXXXXXXXX",
"    ......................  XXXXXXXooXXXXXXXXXXXXXXXXXXXXXXXXXXX",
"    ......................  XXXXXXXooXXXXXXXXXXXXXXXXXXXXXXXXXXX",
"    ......................    XXXXXooooXXXXXXXXXXXXXXXXXXXXXXXXX",
"    ......................    XXXXXooooXXXXXXXXXXXXXXXXXXXXXXXXX",
"  ........................      XXXXXooXXXXXXXXXXXXXXXXXXXXXXXXX",
"  ........................      XXXXXooXXXXXXXXXXXXXXXXXXXXXXXXX",
"  ..........................    XXXXXXXXXXXXXXXXXXXXXXXXXXXXXXXX",
"  ..........................    XXXXXXXXXXXXXXXXXXXXXXXXXXXXXXXX",
"..............................    XXXXXXXXXXXXXXXXXXXXXXXXXXXXXX",
"..............................    XXXXXXXXXXXXXXXXXXXXXXXXXXXXXX",
"..............................    XXXXXooXXXXXXXXXXXXXXXXXXXXXXX",
"..............................    XXXXXooXXXXXXXXXXXXXXXXXXXXXXX"
};
