/* XPM */
static char *sea_right[] = {
/* columns rows colors chars-per-pixel */
"64 64 4 1 ",
"  c #F77622",
". c #FEAE34",
"X c #639BFF",
"o c white",
/* pixels */
"..............................    XXXXooXXXXXXXXXXXXXXXXXXXXXXXX",
"..............................    XXXXooXXXXXXXXXXXXXXXXXXXXXXXX",
"..............................    XXXXooXXXXXXXXXXXXXXXXXXXXXXXX",
"..............................    XXXXooXXXXXXXXXXXXXXXXXXXXXXXX",
"............................    XXXXooooXXXXXXXXXXXXXXXXXXXXXXXX",
"............................    XXXXooooXXXXXXXXXXXXXXXXXXXXXXXX",
"............................    XXXXooXXXXXXXXXXXXXXXXXXXXXXXXXX",
"............................    XXXXooXXXXXXXXXXXXXXXXXXXXXXXXXX",
"............................    XXXXooooXXXXXXXXXXXXXXXXXXXXXXXX",
"............................    XXXXooooXXXXXXXXXXXXXXXXXXXXXXXX",
"............................    XXXXXXooXXXXXXXXXXXXXXXXXXXXXXXX",
"............................    XXXXXXooXXXXXXXXXXXXXXXXXXXXXXXX",
"............................    XXXXXXooXXXXXXXXXXXXXXXXXXXXXXXX",
"............................    XXXXXXooXXXXXXXXXXXXXXXXXXXXXXXX",
"..............................  XXXXXXooXXXXXXXXXXXXXXXXXXXXXXXX",
"..............................  XXXXXXooXXXXXXXXXXXXXXXXXXXXXXXX",
"..............................    XXXXXXXXXXXXXXXXXXXXXXXXXXXXXX",
"..............................    XXXXXXXXXXXXXXXXXXXXXXXXXXXXXX",
"..............................      XXXXooXXXXXXXXXXXXXXXXXXXXXX",
"..............................      XXXXooXXXXXXXXXXXXXXXXXXXXXX",
"................................    XXXXXXXXXXXXXXXXXXXXXXXXXXXX",
"................................    XXXXXXXXXXXXXXXXXXXXXXXXXXXX",
"................................    XXXXXXXXXXXXXXXXXXXXXXXXXXXX",
"................................    XXXXXXXXXXXXXXXXXXXXXXXXXXXX",
"................................    XXXXXXXXXXXXXXXXXXXXXXXXXXXX",
"................................    XXXXXXXXXXXXXXXXXXXXXXXXXXXX",
"..........................          XXXXXXXXXXXXXXXXXXXXXXXXXXXX",
"..........................          XXXXXXXXXXXXXXXXXXXXXXXXXXXX",
"......................              XXXXXXXXXXXXXXXXXXXXXXXXXXXX",
"......................              XXXXXXXXXXXXXXXXXXXXXXXXXXXX",
"................          ....      XXXXXXXXXXXXXXXXXXXXXXXXXXXX",
"................          ....      XXXXXXXXXXXXXXXXXXXXXXXXXXXX",
"............              ....    XXXXXXooXXXXXXXXXXXXXXXXXXXXXX",
"............              ....    XXXXXXooXXXXXXXXXXXXXXXXXXXXXX",
"........              ........    XXXXXXXXXXXXXXXXXXXXXXXXXXXXXX",
"........              ........    XXXXXXXXXXXXXXXXXXXXXXXXXXXXXX",
"......              ..........  XXXXXXooXXXXXXXXXXXXXXXXXXXXXXXX",
"......              ..........  XXXXXXooXXXXXXXXXXXXXXXXXXXXXXXX",
"....            ............    XXXXXXXXXXXXXXXXXXXXXXXXXXXXXXXX",
"....            ............    XXXXXXXXXXXXXXXXXXXXXXXXXXXXXXXX",
"....          ..............  XXXXXXooXXXXXXXXXXXXXXXXXXXXXXXXXX",
"....          ..............  XXXXXXooXXXXXXXXXXXXXXXXXXXXXXXXXX",
"..        ................    XXXXooooXXXXXXXXXXXXXXXXXXXXXXXXXX",
"..        ................    XXXXooooXXXXXXXXXXXXXXXXXXXXXXXXXX",
"..        ................  XXXXXXooXXXXXXXXXXXXXXXXXXXXXXXXXXXX",
"..        ................  XXXXXXooXXXXXXXXXXXXXXXXXXXXXXXXXXXX",
"..      ..................  XXXXXXooXXXXXXXXXXXXXXXXXXXXXXXXXXXX",
"..      ..................  XXXXXXooXXXXXXXXXXXXXXXXXXXXXXXXXXXX",
"      ....................  XXXXXXooXXXXXXXXXXXXXXXXXXXXXXXXXXXX",
"      ....................  XXXXXXooXXXXXXXXXXXXXXXXXXXXXXXXXXXX",
"      ....................  XXXXXXooXXXXXXXXXXXXXXXXXXXXXXXXXXXX",
"      ....................  XXXXXXooXXXXXXXXXXXXXXXXXXXXXXXXXXXX",
"    ......................  XXXXXXooXXXXXXXXXXXXXXXXXXXXXXXXXXXX",
"    ......................  XXXXXXooXXXXXXXXXXXXXXXXXXXXXXXXXXXX",
"    ......................    XXXXooooXXXXXXXXXXXXXXXXXXXXXXXXXX",
"    ......................    XXXXooooXXXXXXXXXXXXXXXXXXXXXXXXXX",
"  ........................      XXXXooXXXXXXXXXXXXXXXXXXXXXXXXXX",
"  ........................      XXXXooXXXXXXXXXXXXXXXXXXXXXXXXXX",
"  ..........................    XXXXXXXXXXXXXXXXXXXXXXXXXXXXXXXX",
"  ..........................    XXXXXXXXXXXXXXXXXXXXXXXXXXXXXXXX",
"..............................    XXXXXXXXXXXXXXXXXXXXXXXXXXXXXX",
"..............................    XXXXXXXXXXXXXXXXXXXXXXXXXXXXXX",
"..............................    XXXXooXXXXXXXXXXXXXXXXXXXXXXXX",
"..............................    XXXXooXXXXXXXXXXXXXXXXXXXXXXXX"
};
