/* XPM */
static char *right_3[] = {
/* columns rows colors chars-per-pixel */
"64 64 4 1 ",
"  c #F77622",
". c #FEAE34",
"X c #639BFF",
"o c white",
/* pixels */
"..............................    XXXXXXXXooXXXXXXXXXXXXXXXXXXXX",
"..............................    XXXXXXXXooXXXXXXXXXXXXXXXXXXXX",
"..............................    XXXXXXXXooXXXXXXXXXXXXXXXXXXXX",
"..............................    XXXXXXXXooXXXXXXXXXXXXXXXXXXXX",
"............................    XXXXXXXXooooXXXXXXXXXXXXXXXXXXXX",
"............................    XXXXXXXXooooXXXXXXXXXXXXXXXXXXXX",
"............................    XXXXXXXXooXXXXXXXXXXXXXXXXXXXXXX",
"............................    XXXXXXXXooXXXXXXXXXXXXXXXXXXXXXX",
"............................    XXXXXXXXooooXXXXXXXXXXXXXXXXXXXX",
"............................    XXXXXXXXooooXXXXXXXXXXXXXXXXXXXX",
"............................    XXXXXXXXXXooXXXXXXXXXXXXXXXXXXXX",
"............................    XXXXXXXXXXooXXXXXXXXXXXXXXXXXXXX",
"............................    XXXXXXXXXXooXXXXXXXXXXXXXXXXXXXX",
"............................    XXXXXXXXXXooXXXXXXXXXXXXXXXXXXXX",
"..............................  XXXXXXXXXXooXXXXXXXXXXXXXXXXXXXX",
"..............................  XXXXXXXXXXooXXXXXXXXXXXXXXXXXXXX",
"..............................    XXXXXXXXXXXXXXXXXXXXXXXXXXXXXX",
"..............................    XXXXXXXXXXXXXXXXXXXXXXXXXXXXXX",
"..............................      XXXXXXXXooXXXXXXXXXXXXXXXXXX",
"..............................      XXXXXXXXooXXXXXXXXXXXXXXXXXX",
"................................    XXXXXXXXXXXXXXXXXXXXXXXXXXXX",
"................................    XXXXXXXXXXXXXXXXXXXXXXXXXXXX",
"................................    XXXXXXXXXXXXXXXXXXXXXXXXXXXX",
"................................    XXXXXXXXXXXXXXXXXXXXXXXXXXXX",
"................................    XXXXXXXXXXXXXXXXXXXXXXXXXXXX",
"................................    XXXXXXXXXXXXXXXXXXXXXXXXXXXX",
"..........................          XXXXXXXXXXXXXXXXXXXXXXXXXXXX",
"..........................          XXXXXXXXXXXXXXXXXXXXXXXXXXXX",
"......................              XXXXXXXXXXXXXXXXXXXXXXXXXXXX",
"......................              XXXXXXXXXXXXXXXXXXXXXXXXXXXX",
"................          ....      XXXXXXXXXXXXXXXXXXXXXXXXXXXX",
"................          ....      XXXXXXXXXXXXXXXXXXXXXXXXXXXX",
"............              ....    XXXXXXXXXooXXXXXXXXXXXXXXXXXXX",
"............              ....    XXXXXXXXXooXXXXXXXXXXXXXXXXXXX",
"........              ........    XXXXXXXXXXXXXXXXXXXXXXXXXXXXXX",
"........              ........    XXXXXXXXXXXXXXXXXXXXXXXXXXXXXX",
"......              ..........  XXXXXXXXXooXXXXXXXXXXXXXXXXXXXXX",
"......              ..........  XXXXXXXXXooXXXXXXXXXXXXXXXXXXXXX",
"....            ............    XXXXXXXXXXXXXXXXXXXXXXXXXXXXXXXX",
"....            ............    XXXXXXXXXXXXXXXXXXXXXXXXXXXXXXXX",
"....          ..............  XXXXXXXXXooXXXXXXXXXXXXXXXXXXXXXXX",
"....          ..............  XXXXXXXXXooXXXXXXXXXXXXXXXXXXXXXXX",
"..        ................    XXXXXXXooooXXXXXXXXXXXXXXXXXXXXXXX",
"..        ................    XXXXXXXooooXXXXXXXXXXXXXXXXXXXXXXX",
"..        ................  XXXXXXXXXooXXXXXXXXXXXXXXXXXXXXXXXXX",
"..        ................  XXXXXXXXXooXXXXXXXXXXXXXXXXXXXXXXXXX",
"..      ..................  XXXXXXXXXooXXXXXXXXXXXXXXXXXXXXXXXXX",
"..      ..................  XXXXXXXXXooXXXXXXXXXXXXXXXXXXXXXXXXX",
"      ....................  XXXXXXXXXooXXXXXXXXXXXXXXXXXXXXXXXXX",
"      ....................  XXXXXXXXXooXXXXXXXXXXXXXXXXXXXXXXXXX",
"      ....................  XXXXXXXXXooXXXXXXXXXXXXXXXXXXXXXXXXX",
"      ....................  XXXXXXXXXooXXXXXXXXXXXXXXXXXXXXXXXXX",
"    ......................  XXXXXXXXXooXXXXXXXXXXXXXXXXXXXXXXXXX",
"    ......................  XXXXXXXXXooXXXXXXXXXXXXXXXXXXXXXXXXX",
"    ......................    XXXXXXXooooXXXXXXXXXXXXXXXXXXXXXXX",
"    ......................    XXXXXXXooooXXXXXXXXXXXXXXXXXXXXXXX",
"  ........................      XXXXXXXooXXXXXXXXXXXXXXXXXXXXXXX",
"  ........................      XXXXXXXooXXXXXXXXXXXXXXXXXXXXXXX",
"  ..........................    XXXXXXXXXXXXXXXXXXXXXXXXXXXXXXXX",
"  ..........................    XXXXXXXXXXXXXXXXXXXXXXXXXXXXXXXX",
"..............................    XXXXXXXXXXXXXXXXXXXXXXXXXXXXXX",
"..............................    XXXXXXXXXXXXXXXXXXXXXXXXXXXXXX",
"..............................    XXXXXXXooXXXXXXXXXXXXXXXXXXXXX",
"..............................    XXXXXXXooXXXXXXXXXXXXXXXXXXXXX"
};
