/* XPM */
static char *Beach_Tileset_34[] = {
/* columns rows colors chars-per-pixel */
"64 64 6 1 ",
"  c #181425",
". c #89493D",
"X c #A3685B",
"o c #E4A672",
"O c #EAD4AA",
"+ c None",
/* pixels */
"++++++++++++++++++++++++++++++++++++++++++++++++++++++++++++++++",
"++++++++++++++++++++++++++++++++++++++++++++++++++++++++++++++++",
"++++++++++++++++++++++++++++++++++++++++++++++++++++++++++++++++",
"++++++++++++++++++++++++++++++++++++++++++++++++++++++++++++++++",
"++++++++++++++++++++++++++++++++++++++++++++++++++++++++++++++++",
"++++++++++++++++++++++++++++++++++++++++++++++++++++++++++++++++",
"++++++++++++++++++++++++++++++++++++++++++++++++++++++++++++++++",
"++++++++++++++++++++++++++++++++++++++++++++++++++++++++++++++++",
"++++++++++++++++++++++++++++++++++++++++++++++++++++++++++++++++",
"++++++++++++++++++++++++++++++++++++++++++++++++++++++++++++++++",
"++++++++++++++++++++++++++++++++++++++++++++++++++++++++++++++++",
"++++++++++++++++++++++++++++++++++++++++++++++++++++++++++++++++",
"++++++++++++++++++++++++++++++++++++++++++++++++++++++++++++++++",
"++++++++++++++++++++++++++++++++++++++++++++++++++++++++++++++++",
"++++++++++++++++++++++++++++++++++++++++++++++++++++++++++++++++",
"++++++++++++++++++++++++++++++++++++++++++++++++++++++++++++++++",
"++++++++++++++++++++++++++++++++++++++++++++++++++++++++++++++++",
"++++++++++++++++++++++++++++++++++++++++++++++++++++++++++++++++",
"++++++++++++++++++++++++++++++++++++++++++++++++++++++++++++++++",
"++++++++++++++++++++++++++++++++++++++++++++++++++++++++++++++++",
"++++++++++++++++++++++++++++++++++++++++++++++++++++++++++++++++",
"++++++++++++++++++++++++++++++++++++++++++++++++++++++++++++++++",
"++++++++++++++++++++++++++++++++++++++++++++++++++++++++++++++++",
"++++++++++++++++++++++++++++++++++++++++++++++++++++++++++++++++",
"++++++++++++++++++++++++++++++++++++++++++++++++++++++++++++++++",
"++++++++++++++++++++++++++++++++++++++++++++++++++++++++++++++++",
"++++++++++++++++++++++++++++++++++++++++++++++++++++++++++++++++",
"++++++++++++++++++++++++++++++++++++++++++++++++++++++++++++++++",
"++++++++++++++++++++++++++++++++++++++++++++++++++++++++++++++++",
"++++++++++++++++++++++++++++++++++++++++++++++++++++++++++++++++",
"++++++++++++++++++++++++++++++++++++++++++++++++++++++++++++++++",
"++++++++++++++++++++++++++++++++++++++++++++++++++++++++++++++++",
"++++++++++++++++++++++++++++++++++++++++++++++++++++++++++++++++",
"++++++++++++++++++++++++++++++++++++++++++++++++++++++++++++++++",
"++++++++++++++++++++++++++++++++++++++++++++++++++++++++++++++++",
"++++++++++++++++++++++++++++++++++++++++++++++++++++++++++++++++",
"++++++++++++++++++++++                    ++++++++++++++++++++++",
"++++++++++++++++++++++                    ++++++++++++++++++++++",
"++++++++++++++++++++++  ooOOOOOOOOOOOOOO  ++++++++++++++++++++++",
"++++++++++++++++++++++  ooOOOOOOOOOOOOOO  ++++++++++++++++++++++",
"++++++++++++++++++++++  ooOOOOOOOOOOOOOO  ++++++++++++++++++++++",
"++++++++++++++++++++++  ooOOOOOOOOOOOOOO  ++++++++++++++++++++++",
"++++++++++++++++++++++  ooOOOOOOOOOOOOOO  ++++++++++++++++++++++",
"++++++++++++++++++++++  ooOOOOOOOOOOOOOO  ++++++++++++++++++++++",
"++++++++++++++++++++++  ooOO    OOOOOO    ++++++++++++++++++++++",
"++++++++++++++++++++++  ooOO    OOOOOO    ++++++++++++++++++++++",
"++++++++++++++++++++++  ooOO    OOOOOO    ++++++++++++++++++++++",
"++++++++++++++++++++++  ooOO    OOOOOO    ++++++++++++++++++++++",
"++++++++++++++++++++++  ooOOOOOOOOOOOOOO  ++++++++++++++++++++++",
"++++++++++++++++++++++  ooOOOOOOOOOOOOOO  ++++++++++++++++++++++",
"++++++++++++++++++++++  ooOOOOOOOOOOOOOO  ++++++++++++++++++++++",
"++++++++++++++++++++++  ooOOOOOOOOOOOOOO  ++++++++++++++++++++++",
"++++++++++++++++++++++  ooOOOOOOOOOOOOOO  ++++++++++++++++++++++",
"++++++++++++++++++++++  ooOOOOOOOOOOOOOO  ++++++++++++++++++++++",
"++++++++++++++++++++++  XXXXXXXXXXXXXXXX  ++++++++++++++++++++++",
"++++++++++++++++++++++  XXXXXXXXXXXXXXXX  ++++++++++++++++++++++",
"++++++++++++++++++++++  ................  ++++++++++++++++++++++",
"++++++++++++++++++++++  ................  ++++++++++++++++++++++",
"++++++++++++++++++++++  ................  ++++++++++++++++++++++",
"++++++++++++++++++++++  ................  ++++++++++++++++++++++",
"++++++++++++++++++++++  XXXX        XXXX  ++++++++++++++++++++++",
"++++++++++++++++++++++  XXXX        XXXX  ++++++++++++++++++++++",
"++++++++++++++++++++++      ++++++      ++++++++++++++++++++++++",
"++++++++++++++++++++++      ++++++      ++++++++++++++++++++++++"
};
