/* XPM */
static char *bottom_03[] = {
/* columns rows colors chars-per-pixel */
"64 64 4 1 ",
"  c #F77622",
". c #FEAE34",
"X c #639BFF",
"o c white",
/* pixels */
"............................................................    ",
"............................................................    ",
"............................................................  ..",
"............................................................  ..",
"..........................................................    ..",
"..........................................................    ..",
"..........................................................    ..",
"..........................................................    ..",
"........................................................      ..",
"........................................................      ..",
"......................................................      ....",
"......................................................      ....",
"....................................................      ......",
"....................................................      ......",
"..................................................      ........",
"..................................................      ........",
"................................................      ..........",
"................................................      ..........",
"............................................        ............",
"............................................        ............",
"........................................          ..............",
"........................................          ..............",
"......................................                  ........",
"......................................                  ........",
"..................................                    ..........",
"..................................                    ..........",
"............................                              ......",
"............................                              ......",
"....          ........                      XXXXXXXXXX      ....",
"....          ........                      XXXXXXXXXX      ....",
"                                        XXXXXXXXXXXXXXXX        ",
"                                        XXXXXXXXXXXXXXXX        ",
"    XXXXXXXXXXXX                    XXXXXXXXXXXXXXXXXXXXXXXX    ",
"    XXXXXXXXXXXX                    XXXXXXXXXXXXXXXXXXXXXXXX    ",
"XXXXooooooXXXXXXXX              XXXXXXXXXXXXXXXXXXXXXXXXXXXXXXXX",
"XXXXooooooXXXXXXXX              XXXXXXXXXXXXXXXXXXXXXXXXXXXXXXXX",
"ooooooXXooooooooXXXXXXXXXXXXXXXXXXXXXXXXXXooooooooooooooXXXXXXXX",
"ooooooXXooooooooXXXXXXXXXXXXXXXXXXXXXXXXXXooooooooooooooXXXXXXXX",
"XXXXXXXXXXXXXXXXXXooXXXXXXXXXXXXXXXXXXXXooooXXXXXXXXXXooooXXXXXX",
"XXXXXXXXXXXXXXXXXXooXXXXXXXXXXXXXXXXXXXXooooXXXXXXXXXXooooXXXXXX",
"XXXXXXXXXXXXXXXXXXXXXXXXXXXXXXXXXXXXooXXXXXXXXXXXXXXXXXXXXXXXXoo",
"XXXXXXXXXXXXXXXXXXXXXXXXXXXXXXXXXXXXooXXXXXXXXXXXXXXXXXXXXXXXXoo",
"XXXXXXXXXXXXXXXXXXXXXXXXXXXXXXXXooXXXXXXXXXXXXXXXXXXXXXXXXXXXXXX",
"XXXXXXXXXXXXXXXXXXXXXXXXXXXXXXXXooXXXXXXXXXXXXXXXXXXXXXXXXXXXXXX",
"XXXXXXXXXXXXXXXXXXXXXXXXXXXXXXXXXXXXXXXXXXXXXXXXXXXXXXXXXXXXXXXX",
"XXXXXXXXXXXXXXXXXXXXXXXXXXXXXXXXXXXXXXXXXXXXXXXXXXXXXXXXXXXXXXXX",
"XXXXXXXXXXXXXXXXXXXXXXXXXXXXXXXXXXXXXXXXXXXXXXXXXXXXXXXXXXXXXXXX",
"XXXXXXXXXXXXXXXXXXXXXXXXXXXXXXXXXXXXXXXXXXXXXXXXXXXXXXXXXXXXXXXX",
"XXXXXXXXXXXXXXXXXXXXXXXXXXXXXXXXXXXXXXXXXXXXXXXXXXXXXXXXXXXXXXXX",
"XXXXXXXXXXXXXXXXXXXXXXXXXXXXXXXXXXXXXXXXXXXXXXXXXXXXXXXXXXXXXXXX",
"XXXXXXXXXXXXXXXXXXXXXXXXXXXXXXXXXXXXXXXXXXXXXXXXXXXXXXXXXXXXXXXX",
"XXXXXXXXXXXXXXXXXXXXXXXXXXXXXXXXXXXXXXXXXXXXXXXXXXXXXXXXXXXXXXXX",
"XXXXXXXXXXXXXXXXXXXXXXXXXXXXXXXXXXXXXXXXXXXXXXXXXXXXXXXXXXXXXXXX",
"XXXXXXXXXXXXXXXXXXXXXXXXXXXXXXXXXXXXXXXXXXXXXXXXXXXXXXXXXXXXXXXX",
"XXXXXXXXXXXXXXXXXXXXXXXXXXXXXXXXXXXXXXXXXXXXXXXXXXXXXXXXXXXXXXXX",
"XXXXXXXXXXXXXXXXXXXXXXXXXXXXXXXXXXXXXXXXXXXXXXXXXXXXXXXXXXXXXXXX",
"XXXXXXXXXXXXXXXXXXXXXXXXXXXXXXXXXXXXXXXXXXXXXXXXXXXXXXXXXXXXXXXX",
"XXXXXXXXXXXXXXXXXXXXXXXXXXXXXXXXXXXXXXXXXXXXXXXXXXXXXXXXXXXXXXXX",
"XXXXXXXXXXXXXXXXXXXXXXXXXXXXXXXXXXXXXXXXXXXXXXXXXXXXXXXXXXXXXXXX",
"XXXXXXXXXXXXXXXXXXXXXXXXXXXXXXXXXXXXXXXXXXXXXXXXXXXXXXXXXXXXXXXX",
"XXXXXXXXXXXXXXXXXXXXXXXXXXXXXXXXXXXXXXXXXXXXXXXXXXXXXXXXXXXXXXXX",
"XXXXXXXXXXXXXXXXXXXXXXXXXXXXXXXXXXXXXXXXXXXXXXXXXXXXXXXXXXXXXXXX",
"XXXXXXXXXXXXXXXXXXXXXXXXXXXXXXXXXXXXXXXXXXXXXXXXXXXXXXXXXXXXXXXX",
"XXXXXXXXXXXXXXXXXXXXXXXXXXXXXXXXXXXXXXXXXXXXXXXXXXXXXXXXXXXXXXXX"
};
