/* XPM */
static char *Beach_Tileset_33_left[] = {
/* columns rows colors chars-per-pixel */
"64 64 6 1 ",
"  c #181425",
". c #824343",
"X c #9D6262",
"o c #E4A672",
"O c #EAD4AA",
"+ c None",
/* pixels */
"++++++++++++++++++++++++++++++++++++++++++++++++++++++++++++++++",
"++++++++++++++++++++++++++++++++++++++++++++++++++++++++++++++++",
"++++++++++++++++++++++++++++++++++++++++++++++++++++++++++++++++",
"++++++++++++++++++++++++++++++++++++++++++++++++++++++++++++++++",
"++++++++++++++++++++++++++++++++++++++++++++++++++++++++++++++++",
"++++++++++++++++++++++++++++++++++++++++++++++++++++++++++++++++",
"++++++++++++++++++++++++++++++++++++++++++++++++++++++++++++++++",
"++++++++++++++++++++++++++++++++++++++++++++++++++++++++++++++++",
"++++++++++++++++++++++++++++++++++++++++++++++++++++++++++++++++",
"++++++++++++++++++++++++++++++++++++++++++++++++++++++++++++++++",
"++++++++++++++++++++++++++++++++++++++++++++++++++++++++++++++++",
"++++++++++++++++++++++++++++++++++++++++++++++++++++++++++++++++",
"++++++++++++++++++++++++++++++++++++++++++++++++++++++++++++++++",
"++++++++++++++++++++++++++++++++++++++++++++++++++++++++++++++++",
"++++++++++++++++++++++++++++++++++++++++++++++++++++++++++++++++",
"++++++++++++++++++++++++++++++++++++++++++++++++++++++++++++++++",
"++++++++++++++++++++++++++++++++++++++++++++++++++++++++++++++++",
"++++++++++++++++++++++++++++++++++++++++++++++++++++++++++++++++",
"++++++++++++++++++++++++++++++++++++++++++++++++++++++++++++++++",
"++++++++++++++++++++++++++++++++++++++++++++++++++++++++++++++++",
"++++++++++++++++++++++++++++++++++++++++++++++++++++++++++++++++",
"++++++++++++++++++++++++++++++++++++++++++++++++++++++++++++++++",
"++++++++++++++++++++++++++++++++++++++++++++++++++++++++++++++++",
"++++++++++++++++++++++++++++++++++++++++++++++++++++++++++++++++",
"++++++++++++++++++++++++++++++++++++++++++++++++++++++++++++++++",
"++++++++++++++++++++++++++++++++++++++++++++++++++++++++++++++++",
"++++++++++++++++++++++++++++++++++++++++++++++++++++++++++++++++",
"++++++++++++++++++++++++++++++++++++++++++++++++++++++++++++++++",
"++++++++++++++++++++++++++++++++++++++++++++++++++++++++++++++++",
"++++++++++++++++++++++++++++++++++++++++++++++++++++++++++++++++",
"++++++++++++++++++++++++++++++++++++++++++++++++++++++++++++++++",
"++++++++++++++++++++++++++++++++++++++++++++++++++++++++++++++++",
"++++++++++++++++++++++++++++++++++++++++++++++++++++++++++++++++",
"++++++++++++++++++++++++++++++++++++++++++++++++++++++++++++++++",
"++++++++++++++++++++++                    ++++++++++++++++++++++",
"++++++++++++++++++++++                    ++++++++++++++++++++++",
"++++++++++++++++++++++  OOOOOOOOOOOOOOoo  ++++++++++++++++++++++",
"++++++++++++++++++++++  OOOOOOOOOOOOOOoo  ++++++++++++++++++++++",
"++++++++++++++++++++++  OOOOOOOOOOOOOOoo  ++++++++++++++++++++++",
"++++++++++++++++++++++  OOOOOOOOOOOOOOoo  ++++++++++++++++++++++",
"++++++++++++++++++++++  OOOOOOOOOOOOOOoo  ++++++++++++++++++++++",
"++++++++++++++++++++++  OOOOOOOOOOOOOOoo  ++++++++++++++++++++++",
"++++++++++++++++++++++    OOOOOO    OOoo  ++++++++++++++++++++++",
"++++++++++++++++++++++    OOOOOO    OOoo  ++++++++++++++++++++++",
"++++++++++++++++++++++    OOOOOO    OOoo  ++++++++++++++++++++++",
"++++++++++++++++++++++    OOOOOO    OOoo  ++++++++++++++++++++++",
"++++++++++++++++++++++  OOOOOOOOOOOOOOoo  ++++++++++++++++++++++",
"++++++++++++++++++++++  OOOOOOOOOOOOOOoo  ++++++++++++++++++++++",
"++++++++++++++++++++++  OOOOOOOOOOOOOOoo  ++++++++++++++++++++++",
"++++++++++++++++++++++  OOOOOOOOOOOOOOoo  ++++++++++++++++++++++",
"++++++++++++++++++++++  OOOOOOOOOOOOOOoo  ++++++++++++++++++++++",
"++++++++++++++++++++++  OOOOOOOOOOOOOOoo  ++++++++++++++++++++++",
"++++++++++++++++++++++  XXXXXXXXXXXXXXXX  ++++++++++++++++++++++",
"++++++++++++++++++++++  XXXXXXXXXXXXXXXX  ++++++++++++++++++++++",
"++++++++++++++++++++++  ................  ++++++++++++++++++++++",
"++++++++++++++++++++++  ................  ++++++++++++++++++++++",
"++++++++++++++++++++++  ................  ++++++++++++++++++++++",
"++++++++++++++++++++++  ................  ++++++++++++++++++++++",
"++++++++++++++++++++++  XXXX        XXXX  ++++++++++++++++++++++",
"++++++++++++++++++++++  XXXX        XXXX  ++++++++++++++++++++++",
"++++++++++++++++++++++++  XX  ++++++  XX  ++++++++++++++++++++++",
"++++++++++++++++++++++++  XX  ++++++  XX  ++++++++++++++++++++++",
"++++++++++++++++++++++++++    ++++++++    ++++++++++++++++++++++",
"++++++++++++++++++++++++++    ++++++++    ++++++++++++++++++++++"
};
