/* XPM */
static char *sea_bottom_right[] = {
/* columns rows colors chars-per-pixel */
"64 64 4 1 ",
"  c #F77622",
". c #FEAE34",
"X c #639BFF",
"o c white",
/* pixels */
"..............................    XXXXooXXXXXXXXXXXXXXXXXXXXXXXX",
"..............................    XXXXooXXXXXXXXXXXXXXXXXXXXXXXX",
"..............................    XXXXooXXXXXXXXXXXXXXXXXXXXXXXX",
"..............................    XXXXooXXXXXXXXXXXXXXXXXXXXXXXX",
"............................    XXXXooooXXXXXXXXXXXXXXXXXXXXXXXX",
"............................    XXXXooooXXXXXXXXXXXXXXXXXXXXXXXX",
"............................    XXXXooXXXXXXXXXXXXXXXXXXXXXXXXXX",
"............................    XXXXooXXXXXXXXXXXXXXXXXXXXXXXXXX",
"............................    XXXXooooXXXXXXXXXXXXXXXXXXXXXXXX",
"............................    XXXXooooXXXXXXXXXXXXXXXXXXXXXXXX",
"............................    XXXXXXooXXXXXXXXXXXXXXXXXXXXXXXX",
"............................    XXXXXXooXXXXXXXXXXXXXXXXXXXXXXXX",
"............................    XXXXXXooXXXXXXXXXXXXXXXXXXXXXXXX",
"............................    XXXXXXooXXXXXXXXXXXXXXXXXXXXXXXX",
"..............................  XXXXXXooXXXXXXXXXXXXXXXXXXXXXXXX",
"..............................  XXXXXXooXXXXXXXXXXXXXXXXXXXXXXXX",
"..............................    XXXXXXXXXXXXXXXXXXXXXXXXXXXXXX",
"..............................    XXXXXXXXXXXXXXXXXXXXXXXXXXXXXX",
"..............................      XXXXooXXXXXXXXXXXXXXXXXXXXXX",
"..............................      XXXXooXXXXXXXXXXXXXXXXXXXXXX",
"................................    XXXXXXXXXXXXXXXXXXXXXXXXXXXX",
"................................    XXXXXXXXXXXXXXXXXXXXXXXXXXXX",
"................................    XXXXXXXXXXXXXXXXXXXXXXXXXXXX",
"................................    XXXXXXXXXXXXXXXXXXXXXXXXXXXX",
"................................    XXXXXXXXXXXXXXXXXXXXXXXXXXXX",
"................................    XXXXXXXXXXXXXXXXXXXXXXXXXXXX",
"............................        XXXXXXXXXXXXXXXXXXXXXXXXXXXX",
"............................        XXXXXXXXXXXXXXXXXXXXXXXXXXXX",
"....          ................      XXXXXXXXXXXXXXXXXXXXXXXXXXXX",
"....          ................      XXXXXXXXXXXXXXXXXXXXXXXXXXXX",
"                    ........        XXXXXXXXXXXXXXXXXXXXXXXXXXXX",
"                    ........        XXXXXXXXXXXXXXXXXXXXXXXXXXXX",
"    XXXXXXXXXXXX                  XXXXXXooXXXXXXXXXXXXXXXXXXXXXX",
"    XXXXXXXXXXXX                  XXXXXXooXXXXXXXXXXXXXXXXXXXXXX",
"XXXXXXXXXXXXXXXXXX              XXXXXXXXXXXXXXXXXXXXXXXXXXXXXXXX",
"XXXXXXXXXXXXXXXXXX              XXXXXXXXXXXXXXXXXXXXXXXXXXXXXXXX",
"XXXXooooooXXXXXXXXXXXXXXXXXXXXXXXXXXXXooXXXXXXXXXXXXXXXXXXXXXXXX",
"XXXXooooooXXXXXXXXXXXXXXXXXXXXXXXXXXXXooXXXXXXXXXXXXXXXXXXXXXXXX",
"ooooooXXooooooooXXXXXXXXXXXXXXXXXXXXooXXXXXXXXXXXXXXXXXXXXXXXXXX",
"ooooooXXooooooooXXXXXXXXXXXXXXXXXXXXooXXXXXXXXXXXXXXXXXXXXXXXXXX",
"XXXXXXXXXXXXXXXXXXooXXXXXXXXXXXXooXXXXXXXXXXXXXXXXXXXXXXXXXXXXXX",
"XXXXXXXXXXXXXXXXXXooXXXXXXXXXXXXooXXXXXXXXXXXXXXXXXXXXXXXXXXXXXX",
"XXXXXXXXXXXXXXXXXXXXXXXXXXXXXXXXXXXXXXXXXXXXXXXXXXXXXXXXXXXXXXXX",
"XXXXXXXXXXXXXXXXXXXXXXXXXXXXXXXXXXXXXXXXXXXXXXXXXXXXXXXXXXXXXXXX",
"XXXXXXXXXXXXXXXXXXXXXXXXXXXXXXXXXXXXXXXXXXXXXXXXXXXXXXXXXXXXXXXX",
"XXXXXXXXXXXXXXXXXXXXXXXXXXXXXXXXXXXXXXXXXXXXXXXXXXXXXXXXXXXXXXXX",
"XXXXXXXXXXXXXXXXXXXXXXXXXXXXXXXXXXXXXXXXXXXXXXXXXXXXXXXXXXXXXXXX",
"XXXXXXXXXXXXXXXXXXXXXXXXXXXXXXXXXXXXXXXXXXXXXXXXXXXXXXXXXXXXXXXX",
"XXXXXXXXXXXXXXXXXXXXXXXXXXXXXXXXXXXXXXXXXXXXXXXXXXXXXXXXXXXXXXXX",
"XXXXXXXXXXXXXXXXXXXXXXXXXXXXXXXXXXXXXXXXXXXXXXXXXXXXXXXXXXXXXXXX",
"XXXXXXXXXXXXXXXXXXXXXXXXXXXXXXXXXXXXXXXXXXXXXXXXXXXXXXXXXXXXXXXX",
"XXXXXXXXXXXXXXXXXXXXXXXXXXXXXXXXXXXXXXXXXXXXXXXXXXXXXXXXXXXXXXXX",
"XXXXXXXXXXXXXXXXXXXXXXXXXXXXXXXXXXXXXXXXXXXXXXXXXXXXXXXXXXXXXXXX",
"XXXXXXXXXXXXXXXXXXXXXXXXXXXXXXXXXXXXXXXXXXXXXXXXXXXXXXXXXXXXXXXX",
"XXXXXXXXXXXXXXXXXXXXXXXXXXXXXXXXXXXXXXXXXXXXXXXXXXXXXXXXXXXXXXXX",
"XXXXXXXXXXXXXXXXXXXXXXXXXXXXXXXXXXXXXXXXXXXXXXXXXXXXXXXXXXXXXXXX",
"XXXXXXXXXXXXXXXXXXXXXXXXXXXXXXXXXXXXXXXXXXXXXXXXXXXXXXXXXXXXXXXX",
"XXXXXXXXXXXXXXXXXXXXXXXXXXXXXXXXXXXXXXXXXXXXXXXXXXXXXXXXXXXXXXXX",
"XXXXXXXXXXXXXXXXXXXXXXXXXXXXXXXXXXXXXXXXXXXXXXXXXXXXXXXXXXXXXXXX",
"XXXXXXXXXXXXXXXXXXXXXXXXXXXXXXXXXXXXXXXXXXXXXXXXXXXXXXXXXXXXXXXX",
"XXXXXXXXXXXXXXXXXXXXXXXXXXXXXXXXXXXXXXXXXXXXXXXXXXXXXXXXXXXXXXXX",
"XXXXXXXXXXXXXXXXXXXXXXXXXXXXXXXXXXXXXXXXXXXXXXXXXXXXXXXXXXXXXXXX",
"XXXXXXXXXXXXXXXXXXXXXXXXXXXXXXXXXXXXXXXXXXXXXXXXXXXXXXXXXXXXXXXX",
"XXXXXXXXXXXXXXXXXXXXXXXXXXXXXXXXXXXXXXXXXXXXXXXXXXXXXXXXXXXXXXXX"
};
