/* XPM */
static char *Beach_Tileset_05_01[] = {
/* columns rows colors chars-per-pixel */
"64 64 8 1 ",
"  c #265C42",
". c #F77622",
"X c #B86F50",
"o c #3E8948",
"O c #63C74D",
"+ c #FEAE34",
"@ c #C28569",
"# c #E8B796",
/* pixels */
"++++++++++++++++++++++++++++++++++++++++++++++++++++++++++++....",
"++++++++++++++++++++++++++++++++++++++++++++++++++++++++++++....",
"++++++++++++++++++++++++++++++++++++++++++++++++++++++++++++..++",
"++++++++++++++++++++++++++++++++++++++++++++++++++++++++++++..++",
"++++++++++++++++++++++++++++++++++++++++++++++++++++++++++....++",
"++++++++++++++++++++++++++++++++++++++++++++++++++++++++++....++",
"++++++++++++++++++++++++++++++++++++++++++++++++++++++++++....++",
"++++++++++++++++++++++++++++++++++++++++++++++++++++++++++....++",
"++++++++++++++++++++++++++++++++++++++++++++++++++++++++......++",
"++++++++++++++++++++++++++++++++++++++++++++++++++++++++......++",
"++++++++++                ++++++++++++++++++++++++++++......++++",
"++++++++++                ++++++++++++++++++++++++++++......++++",
"++++++++    OOOOOOOOOOOOOO  ++++        ++++        ......++++++",
"++++++++    OOOOOOOOOOOOOO  ++++        ++++        ......++++++",
"++++++  OOOOoooooooooooooooo      OOOO      OOOOOOOO    ++++++++",
"++++++  OOOOoooooooooooooooo      OOOO      OOOOOOOO    ++++++++",
"++++  OOoooooooooooooooooooooo  OOooooOO                  ++++++",
"++++  OOoooooooooooooooooooooo  OOooooOO                  ++++++",
"++  OOoo                        oooooo  OOOOOOOOOOOOOOOOOO  ++++",
"++  OOoo                        oooooo  OOOOOOOOOOOOOOOOOO  ++++",
"++  oo    ++++    OOOOOOOOOO    oooo    ooOOooooooooooooooOO  ++",
"++  oo    ++++    OOOOOOOOOO    oooo    ooOOooooooooooooooOO  ++",
"++      ++++  OOOOooooooooOOOO      ooooOOOOOOOO          oooo  ",
"++      ++++  OOOOooooooooOOOO      ooooOOOOOOOO          oooo  ",
"++  ++++++  OOoooooooooooooooo        ooooooooooOOOOOO          ",
"++  ++++++  OOoooooooooooooooo        ooooooooooOOOOOO          ",
"++++++++  OOoooooooo          ooOOOO      ooooooooooOOOO  ++++++",
"++++++++  OOoooooooo          ooOOOO      ooooooooooOOOO  ++++++",
"++++++++  oooooo                ooOOOO        ooooooooOOOO    ++",
"++++++++  oooooo                ooOOOO        ooooooooOOOO    ++",
"++++++++  oooo        ....      ooooOOOO            ooooOOOO    ",
"++++++++  oooo        ....      ooooOOOO            ooooOOOO    ",
"++++++  oooo      ..........XX    ooooOO                oooooo  ",
"++++++  oooo      ..........XX    ooooOO                oooooo  ",
"++++  oooo    ........++++++XX      oooo  ++++++          oooo  ",
"++++  oooo    ........++++++XX      oooo  ++++++          oooo  ",
"++++  oo    ........++++++++XXXX      oo  ++++++++++++      oo  ",
"++++  oo    ........++++++++XXXX      oo  ++++++++++++      oo  ",
"++        ......++++++++++++XXXXXX    oo  ++++++++++++          ",
"++        ......++++++++++++XXXXXX    oo  ++++++++++++          ",
"++    ........++++++++++++++XX@@XX++  oooo  ++++++++++++  ++++++",
"++    ........++++++++++++++XX@@XX++  oooo  ++++++++++++  ++++++",
"++........++++++++++++++++++XX@@@@++    oo  ++++++++++++++++++++",
"++........++++++++++++++++++XX@@@@++    oo  ++++++++++++++++++++",
"++........++++++++++++++++++XX@@@@++    oo  ++++++++++++++++++++",
"++........++++++++++++++++++XX@@@@++    oo  ++++++++++++++++++++",
"++......++++++++++++++++++XXXX@@++++++      ++++++++++++++++++++",
"++......++++++++++++++++++XXXX@@++++++      ++++++++++++++++++++",
"......++++++++++++++++++++XXXX@@++++++    ++++++++++++++++++++++",
"......++++++++++++++++++++XXXX@@++++++    ++++++++++++++++++++++",
"......++++++++++++++++++++XX##@@++++++  ++++++++++++++++++++++++",
"......++++++++++++++++++++XX##@@++++++  ++++++++++++++++++++++++",
"....++++++++++++++++++++++XX##@@++++++++++++++++++++++++++++++++",
"....++++++++++++++++++++++XX##@@++++++++++++++++++++++++++++++++",
"....++++++++++++++++++++++XX##@@++++++++++++++++++++++++++++++++",
"....++++++++++++++++++++++XX##@@++++++++++++++++++++++++++++++++",
"..++++++++++++++++++++++++XX@@@@++++++++++++++++++++++++++++++++",
"..++++++++++++++++++++++++XX@@@@++++++++++++++++++++++++++++++++",
"..++++++++++++++++++++++++XXXX@@++++++++++++++++++++++++++++++..",
"..++++++++++++++++++++++++XXXX@@++++++++++++++++++++++++++++++..",
"++++++++++++++++++++++++++XX##@@@@++++++++++++++++++++++++++++..",
"++++++++++++++++++++++++++XX##@@@@++++++++++++++++++++++++++++..",
"++++++++++++++++++++++++++XX####@@++++++++++++++++++++++++++++..",
"++++++++++++++++++++++++++XX####@@++++++++++++++++++++++++++++.."
};
