/* XPM */
static char *land_left_right_diag[] = {
/* columns rows colors chars-per-pixel */
"64 64 4 1 ",
"  c #F77622",
". c #FEAE34",
"X c #639BFF",
"o c white",
/* pixels */
"..............................    XXXXooXXXXXXXXXXXXXXXXXXXXXXXX",
"..............................    XXXXooXXXXXXXXXXXXXXXXXXXXXXXX",
"..............................    XXXXooXXXXXXXXXXXXXXXXXXXXXXXX",
"..............................    XXXXooXXXXXXXXXXXXXXXXXXXXXXXX",
"............................    XXXXooooXXXXXXXXXXXXXXXXXXXXXXXX",
"............................    XXXXooooXXXXXXXXXXXXXXXXXXXXXXXX",
"............................    XXXXooXXXXXXXXXXXXXXXXXXXXXXXXXX",
"............................    XXXXooXXXXXXXXXXXXXXXXXXXXXXXXXX",
"............................    XXXXooooXXXXXXXXXXXXXXXXXXXXXXXX",
"............................    XXXXooooXXXXXXXXXXXXXXXXXXXXXXXX",
"............................    XXXXXXooXXXXXXXXXXXXXXXXXXXXXXXX",
"............................    XXXXXXooXXXXXXXXXXXXXXXXXXXXXXXX",
"............................    XXXXXXooXXXXXXXXXXXXXXXXXXXXXXXX",
"............................    XXXXXXooXXXXXXXXXXXXXXXXXXXXXXXX",
"..............................  XXXXXXooXXXXXXXXXXXXXXXXXXXXXXXX",
"..............................  XXXXXXooXXXXXXXXXXXXXXXXXXXXXXXX",
"..............................    XXXXXXXXXXXXXXXXXXXXXXXXXXXXXX",
"..............................    XXXXXXXXXXXXXXXXXXXXXXXXXXXXXX",
"..............................      XXXXooXXXXXXXXXXXXXXXXXXXXXX",
"..............................      XXXXooXXXXXXXXXXXXXXXXXXXXXX",
"................................    XXXXXXXXXXXXXXXXXXXXXXXXXXXX",
"................................    XXXXXXXXXXXXXXXXXXXXXXXXXXXX",
"................................    XXXXXXXXXXXXXXXXXXXXXXXXXXXX",
"................................    XXXXXXXXXXXXXXXXXXXXXXXXXXXX",
"................................    XXXXXXXXXXXXooooooooXXoooooo",
"................................    XXXXXXXXXXXXooooooooXXoooooo",
"............................        XXXXXXXXXXXXXXXXXXooooooXXXX",
"............................        XXXXXXXXXXXXXXXXXXooooooXXXX",
"....          ................                XXXXXXXXXXXXXXXXXX",
"....          ................                XXXXXXXXXXXXXXXXXX",
"                    ........                    XXXXXXXXXXXX    ",
"                    ........                    XXXXXXXXXXXX    ",
"    XXXXXXXXXXXX                    ........                    ",
"    XXXXXXXXXXXX                    ........                    ",
"XXXXXXXXXXXXXXXXXX                ................          ....",
"XXXXXXXXXXXXXXXXXX                ................          ....",
"XXXXooooooXXXXXXXXXXXXXXXXXXXXXX  ..............................",
"XXXXooooooXXXXXXXXXXXXXXXXXXXXXX  ..............................",
"ooooooXXooooooooXXXXXXXXXXXXXXXX    ............................",
"ooooooXXooooooooXXXXXXXXXXXXXXXX    ............................",
"XXXXXXXXXXXXXXXXXXooXXXXXXooXXXXXX  ............................",
"XXXXXXXXXXXXXXXXXXooXXXXXXooXXXXXX  ............................",
"XXXXXXXXXXXXXXXXXXXXXXXXXXooooXXXX    ..........................",
"XXXXXXXXXXXXXXXXXXXXXXXXXXooooXXXX    ..........................",
"XXXXXXXXXXXXXXXXXXXXXXXXXXXXooXXXXXX  ..........................",
"XXXXXXXXXXXXXXXXXXXXXXXXXXXXooXXXXXX  ..........................",
"XXXXXXXXXXXXXXXXXXXXXXXXXXXXooXXXXXX    ........................",
"XXXXXXXXXXXXXXXXXXXXXXXXXXXXooXXXXXX    ........................",
"XXXXXXXXXXXXXXXXXXXXXXXXXXXXooXXXXXX    ........................",
"XXXXXXXXXXXXXXXXXXXXXXXXXXXXooXXXXXX    ........................",
"XXXXXXXXXXXXXXXXXXXXXXXXXXXXooXXXXXX    ........................",
"XXXXXXXXXXXXXXXXXXXXXXXXXXXXooXXXXXX    ........................",
"XXXXXXXXXXXXXXXXXXXXXXXXXXXXooXXXXXX    ........................",
"XXXXXXXXXXXXXXXXXXXXXXXXXXXXooXXXXXX    ........................",
"XXXXXXXXXXXXXXXXXXXXXXXXXXooooXXXX    ..........................",
"XXXXXXXXXXXXXXXXXXXXXXXXXXooooXXXX    ..........................",
"XXXXXXXXXXXXXXXXXXXXXXXXXXooXXXX      ..........................",
"XXXXXXXXXXXXXXXXXXXXXXXXXXooXXXX      ..........................",
"XXXXXXXXXXXXXXXXXXXXXXXXXXXXXXXX    ..........................  ",
"XXXXXXXXXXXXXXXXXXXXXXXXXXXXXXXX    ..........................  ",
"XXXXXXXXXXXXXXXXXXXXXXXXXXXXXX    ............................  ",
"XXXXXXXXXXXXXXXXXXXXXXXXXXXXXX    ............................  ",
"XXXXXXXXXXXXXXXXXXXXXXXXooXXXX    ............................  ",
"XXXXXXXXXXXXXXXXXXXXXXXXooXXXX    ............................  "
};
