/* XPM */
static char *Boats_03[] = {
/* columns rows colors chars-per-pixel */
"128 128 6 1 ",
"  c #743F39",
". c #B86F50",
"X c #C28569",
"o c #124E89",
"O c white",
"+ c None",
/* pixels */
"++++++++++++++++++++++++++++++++++++++++++++++++++++OOOOOOOOOOOO++++++++++++++++++++++++++++++++++++++++++++++++++++++++++++++++",
"++++++++++++++++++++++++++++++++++++++++++++++++++++OOOOOOOOOOOO++++++++++++++++++++++++++++++++++++++++++++++++++++++++++++++++",
"++++++++++++++++++++++++++++++++++++++++++++++++++++OOOOOOOOOOOO++++++++++++++++++++++++++++++++++++++++++++++++++++++++++++++++",
"++++++++++++++++++++++++++++++++++++++++++++++++++++OOOOOOOOOOOO++++++++++++++++++++++++++++++++++++++++++++++++++++++++++++++++",
"++++++++++++++++++++++++++++++++++++++++++++++++++++++++OOOOOOOO++++++++++++++++++++++++++++++++++++++++++++++++++++++++++++++++",
"++++++++++++++++++++++++++++++++++++++++++++++++++++++++OOOOOOOO++++++++++++++++++++++++++++++++++++++++++++++++++++++++++++++++",
"++++++++++++++++++++++++++++++++++++++++++++++++++++++++OOOOOOOO++++++++++++++++++++++++++++++++++++++++++++++++++++++++++++++++",
"++++++++++++++++++++++++++++++++++++++++++++++++++++++++OOOOOOOO++++++++++++++++++++++++++++++++++++++++++++++++++++++++++++++++",
"++++++++++++++++++++++++++++++++++++++++++++++++++++++++    OOOOOOOO++++++++++++++++++++++++++++++++++++++++++++++++++++++++++++",
"++++++++++++++++++++++++++++++++++++++++++++++++++++++++    OOOOOOOO++++++++++++++++++++++++++++++++++++++++++++++++++++++++++++",
"++++++++++++++++++++++++++++++++++++++++++++++++++++++++    OOOOOOOO++++++++++++++++++++++++++++++++++++++++++++++++++++++++++++",
"++++++++++++++++++++++++++++++++++++++++++++++++++++++++    OOOOOOOO++++++++++++++++++++++++++++++++++++++++++++++++++++++++++++",
"++++++++++++++++++++++++++++++++++++++++++++++++++++XXXX    OOOOOOOO++++++++++++++++++++++++++++++++++++++++++++++++++++++++++++",
"++++++++++++++++++++++++++++++++++++++++++++++++++++XXXX    OOOOOOOO++++++++++++++++++++++++++++++++++++++++++++++++++++++++++++",
"++++++++++++++++++++++++++++++++++++++++++++++++++++XXXX    OOOOOOOO++++++++++++++++++++++++++++++++++++++++++++++++++++++++++++",
"++++++++++++++++++++++++++++++++++++++++++++++++++++XXXX    OOOOOOOO++++++++++++++++++++++++++++++++++++++++++++++++++++++++++++",
"++++++++++++++++++++++++++++++++++++++++++++++++++++XXXX    OOOOOOOO++++++++++++++++++++++++++++++++++++++++++++++++++++++++++++",
"++++++++++++++++++++++++++++++++++++++++++++++++++++XXXX    OOOOOOOO++++++++++++++++++++++++++++++++++++++++++++++++++++++++++++",
"++++++++++++++++++++++++++++++++++++++++++++++++++++XXXX    OOOOOOOO++++++++++++++++++++++++++++++++++++++++++++++++++++++++++++",
"++++++++++++++++++++++++++++++++++++++++++++++++++++XXXX    OOOOOOOO++++++++++++++++++++++++++++++++++++++++++++++++++++++++++++",
"++++++++++++++++++++++++++++++++++++++++++++++++++++XXXXXXXXOOOOOOOO++++++++++++++++++++++++++++++++++++++++++++++++++++++++++++",
"++++++++++++++++++++++++++++++++++++++++++++++++++++XXXXXXXXOOOOOOOO++++++++++++++++++++++++++++++++++++++++++++++++++++++++++++",
"++++++++++++++++++++++++++++++++++++++++++++++++++++XXXXXXXXOOOOOOOO++++++++++++++++++++++++++++++++++++++++++++++++++++++++++++",
"++++++++++++++++++++++++++++++++++++++++++++++++++++XXXXXXXXOOOOOOOO++++++++++++++++++++++++++++++++++++++++++++++++++++++++++++",
"++++++++++++++++++++++++++++++++++++++++++++++++++++++++    OOOOOOOO++++++++++++++++++++++++++++++++++++++++++++++++++++++++++++",
"++++++++++++++++++++++++++++++++++++++++++++++++++++++++    OOOOOOOO++++++++++++++++++++++++++++++++++++++++++++++++++++++++++++",
"++++++++++++++++++++++++++++++++++++++++++++++++++++++++    OOOOOOOO++++++++++++++++++++++++++++++++++++++++++++++++++++++++++++",
"++++++++++++++++++++++++++++++++++++++++++++++++++++++++    OOOOOOOO++++++++++++++++++++++++++++++++++++++++++++++++++++++++++++",
"++++++++++++++++++++++++++++++++++++++++++++++++++++++++OOOOOOOOOOOO++++++++++++++++++++++++++++++++++++++++++++++++++++++++++++",
"++++++++++++++++++++++++++++++++++++++++++++++++++++++++OOOOOOOOOOOO++++++++++++++++++++++++++++++++++++++++++++++++++++++++++++",
"++++++++++++++++++++++++++++++++++++++++++++++++++++++++OOOOOOOOOOOO++++++++++++++++++++++++++++++++++++++++++++++++++++++++++++",
"++++++++++++++++++++++++++++++++++++++++++++++++++++++++OOOOOOOOOOOO++++++++++++++++++++++++++++++++++++++++++++++++++++++++++++",
"++++++++++++++++++++++++++++++++++++++++++++++++++++++++OOOOOOOO++++++++++++++++++++++++++++++++++++++++++++++++++++++++++++++++",
"++++++++++++++++++++++++++++++++++++++++++++++++++++++++OOOOOOOO++++++++++++++++++++++++++++++++++++++++++++++++++++++++++++++++",
"++++++++++++++++++++++++++++++++++++++++++++++++++++++++OOOOOOOO++++++++++++++++++++++++++++++++++++++++++++++++++++++++++++++++",
"++++++++++++++++++++++++++++++++++++++++++++++++++++++++OOOOOOOO++++++++++++++++++++++++++++++++++++++++++++++++++++++++++++++++",
"++++................................++++++++++++++++OOOOOOOOOOOO++++++++++++++++++++++++++++++++++++++++++++++++++++++++++++++++",
"++++................................++++++++++++++++OOOOOOOOOOOO++++++++++++++++++++++++++++++++++++++++++++++++++++++++++++++++",
"++++................................++++++++++++++++OOOOOOOOOOOO++++++++++++++++++++++++++++++++++++++++++++++++++++++++++++++++",
"++++................................++++++++++++++++OOOOOOOOOOOO++++++++++++++++++++++++++++++++++++++++++++++++++++++++++++++++",
"....++++++++....++++++++....++++++++....++++++++++++OOOOOOOO++++++++++++++++++++++++++++++++++++++++++++++++++++++++++++++++++++",
"....++++++++....++++++++....++++++++....++++++++++++OOOOOOOO++++++++++++++++++++++++++++++++++++++++++++++++++++++++++++++++++++",
"....++++++++....++++++++....++++++++....++++++++++++OOOOOOOO++++++++++++++++++++++++++++++++++++++++++++++++++++++++++++++++++++",
"....++++++++....++++++++....++++++++....++++++++++++OOOOOOOO++++++++++++++++++++++++++++++++++++++++++++++++++++++++++++++++++++",
"............    ........    ........    ....++++++++OOOO    ++++++++++++++++++++++++++++++++++++++++++++++++++++++++++++++++++++",
"............    ........    ........    ....++++++++OOOO    ++++++++++++++++++++++++++++++++++++++++++++++++++++++++++++++++++++",
"............    ........    ........    ....++++++++OOOO    ++++++++++++++++++++++++++++++++++++++++++++++++++++++++++++++++++++",
"............    ........    ........    ....++++++++OOOO    ++++++++++++++++++++++++++++++++++++++++++++++++++++++++++++++++++++",
"....                                XXXX....++++++++++++    ++++++++++++++++++++++++++++++++++++++++++++++++++++++++++++++++++++",
"....                                XXXX....++++++++++++    ++++++++++++++++++++++++++++++++++++++++++++++++++++++++++++++++++++",
"....                                XXXX....++++++++++++    ++++++++++++++++++++++++++++++++++++++++++++++++++++++++++++++++++++",
"....                                XXXX....++++++++++++    ++++++++++++++++++++++++++++++++++++++++++++++++++++++++++++++++++++",
"....XXXXXXXXXXXXXXXXXXXXXXXXXXXXXXXXXXXXXXXX............    ....................................++++++++++++++++++++++++++++++++",
"....XXXXXXXXXXXXXXXXXXXXXXXXXXXXXXXXXXXXXXXX............    ....................................++++++++++++++++++++++++++++++++",
"....XXXXXXXXXXXXXXXXXXXXXXXXXXXXXXXXXXXXXXXX............    ....................................++++++++++++++++++++++++++++++++",
"....XXXXXXXXXXXXXXXXXXXXXXXXXXXXXXXXXXXXXXXX............    ....................................++++++++++++++++++++++++++++++++",
"....XXXXXXXXXXXXXXXXXXXXXXXXXXXXXXXXXXXXXXXX++++++++....    ++++....++++++++....++++++++............................++++++++++++",
"....XXXXXXXXXXXXXXXXXXXXXXXXXXXXXXXXXXXXXXXX++++++++....    ++++....++++++++....++++++++............................++++++++++++",
"....XXXXXXXXXXXXXXXXXXXXXXXXXXXXXXXXXXXXXXXX++++++++....    ++++....++++++++....++++++++............................++++++++++++",
"....XXXXXXXXXXXXXXXXXXXXXXXXXXXXXXXXXXXXXXXX++++++++....    ++++....++++++++....++++++++............................++++++++++++",
"........................................XXXX    XXXX        XXXX    XXXXXXXX    XXXXXXXX    ....++++++++....++++++++........++++",
"........................................XXXX    XXXX        XXXX    XXXXXXXX    XXXXXXXX    ....++++++++....++++++++........++++",
"........................................XXXX    XXXX        XXXX    XXXXXXXX    XXXXXXXX    ....++++++++....++++++++........++++",
"........................................XXXX    XXXX        XXXX    XXXXXXXX    XXXXXXXX    ....++++++++....++++++++........++++",
"....XXXXXXXX    XXXXXXXX    XXXXXXXXXXXX....XXXX                                                XXXXXXXX    XXXXXXXX........++++",
"....XXXXXXXX    XXXXXXXX    XXXXXXXXXXXX....XXXX                                                XXXXXXXX    XXXXXXXX........++++",
"....XXXXXXXX    XXXXXXXX    XXXXXXXXXXXX....XXXX                                                XXXXXXXX    XXXXXXXX........++++",
"....XXXXXXXX    XXXXXXXX    XXXXXXXXXXXX....XXXX                                                XXXXXXXX    XXXXXXXX........++++",
"................................    XXXXXXXX............................................................................++++++++",
"................................    XXXXXXXX............................................................................++++++++",
"................................    XXXXXXXX............................................................................++++++++",
"................................    XXXXXXXX............................................................................++++++++",
"........                            ............XXXX....XXXXXXXX....XXXXXXXX....XXXXXXXX........XXXXXXXX....XXXXXXXX....++++++++",
"........                            ............XXXX....XXXXXXXX....XXXXXXXX....XXXXXXXX........XXXXXXXX....XXXXXXXX....++++++++",
"........                            ............XXXX....XXXXXXXX....XXXXXXXX....XXXXXXXX........XXXXXXXX....XXXXXXXX....++++++++",
"........                            ............XXXX....XXXXXXXX....XXXXXXXX....XXXXXXXX........XXXXXXXX....XXXXXXXX....++++++++",
"........                                    ........................................................................++++++++++++",
"........                                    ........................................................................++++++++++++",
"........                                    ........................................................................++++++++++++",
"........                                    ........................................................................++++++++++++",
"........                                                                                                    ....++++++++++++++++",
"........                                                                                                    ....++++++++++++++++",
"........                                                                                                    ....++++++++++++++++",
"........                                                                                                    ....++++++++++++++++",
"........                                                                                                    ....++++++++++++++++",
"........                                                                                                    ....++++++++++++++++",
"........                                                                                                    ....++++++++++++++++",
"........                                                                                                    ....++++++++++++++++",
"++++....                                                                                            ........++++++++++++++++++++",
"++++....                                                                                            ........++++++++++++++++++++",
"++++....                                                                                            ........++++++++++++++++++++",
"++++....                                                                                            ........++++++++++++++++++++",
"++++++++                                                                                            oooo++++++++++++++++++++++++",
"++++++++                                                                                            oooo++++++++++++++++++++++++",
"++++++++                                                                                            oooo++++++++++++++++++++++++",
"++++++++                                                                                            oooo++++++++++++++++++++++++",
"++++++++oooo                                                                                    oooo++++++++++++++++++++++++++++",
"++++++++oooo                                                                                    oooo++++++++++++++++++++++++++++",
"++++++++oooo                                                                                    oooo++++++++++++++++++++++++++++",
"++++++++oooo                                                                                    oooo++++++++++++++++++++++++++++",
"++++++++++++oooo                                                                        oooooooooooo++++++++++++++++++++++++++++",
"++++++++++++oooo                                                                        oooooooooooo++++++++++++++++++++++++++++",
"++++++++++++oooo                                                                        oooooooooooo++++++++++++++++++++++++++++",
"++++++++++++oooo                                                                        oooooooooooo++++++++++++++++++++++++++++",
"++++++++++++++++oooooooooooooooooooooooooooooooooooooooooooooooooooooooooooooooooooooooooooooooo++++++++++++++++++++++++++++++++",
"++++++++++++++++oooooooooooooooooooooooooooooooooooooooooooooooooooooooooooooooooooooooooooooooo++++++++++++++++++++++++++++++++",
"++++++++++++++++oooooooooooooooooooooooooooooooooooooooooooooooooooooooooooooooooooooooooooooooo++++++++++++++++++++++++++++++++",
"++++++++++++++++oooooooooooooooooooooooooooooooooooooooooooooooooooooooooooooooooooooooooooooooo++++++++++++++++++++++++++++++++",
"++++++++++++++++++++++++++++++++++++++++oooooooooooooooooooooooooooooooo++++++++++++++++++++++++++++++++++++++++++++++++++++++++",
"++++++++++++++++++++++++++++++++++++++++oooooooooooooooooooooooooooooooo++++++++++++++++++++++++++++++++++++++++++++++++++++++++",
"++++++++++++++++++++++++++++++++++++++++oooooooooooooooooooooooooooooooo++++++++++++++++++++++++++++++++++++++++++++++++++++++++",
"++++++++++++++++++++++++++++++++++++++++oooooooooooooooooooooooooooooooo++++++++++++++++++++++++++++++++++++++++++++++++++++++++",
"++++++++++++++++++++oooooooooooo++++++++++++++++++++++++++++++++++++++++++++++++oooooooooooooooo++++++++++++++++++++++++++++++++",
"++++++++++++++++++++oooooooooooo++++++++++++++++++++++++++++++++++++++++++++++++oooooooooooooooo++++++++++++++++++++++++++++++++",
"++++++++++++++++++++oooooooooooo++++++++++++++++++++++++++++++++++++++++++++++++oooooooooooooooo++++++++++++++++++++++++++++++++",
"++++++++++++++++++++oooooooooooo++++++++++++++++++++++++++++++++++++++++++++++++oooooooooooooooo++++++++++++++++++++++++++++++++",
"++++++++++++++++++++++++++++++++++++++++++++++++++++++++++++++++++++++++++++++++++++++++++++++++++++++++++++++++++++++++++++++++",
"++++++++++++++++++++++++++++++++++++++++++++++++++++++++++++++++++++++++++++++++++++++++++++++++++++++++++++++++++++++++++++++++",
"++++++++++++++++++++++++++++++++++++++++++++++++++++++++++++++++++++++++++++++++++++++++++++++++++++++++++++++++++++++++++++++++",
"++++++++++++++++++++++++++++++++++++++++++++++++++++++++++++++++++++++++++++++++++++++++++++++++++++++++++++++++++++++++++++++++",
"++++++++++++++++++++++++++++++++++++++++++++++++++++++++++++++++++++++++++++++++++++++++++++++++++++++++++++++++++++++++++++++++",
"++++++++++++++++++++++++++++++++++++++++++++++++++++++++++++++++++++++++++++++++++++++++++++++++++++++++++++++++++++++++++++++++",
"++++++++++++++++++++++++++++++++++++++++++++++++++++++++++++++++++++++++++++++++++++++++++++++++++++++++++++++++++++++++++++++++",
"++++++++++++++++++++++++++++++++++++++++++++++++++++++++++++++++++++++++++++++++++++++++++++++++++++++++++++++++++++++++++++++++",
"++++++++++++++++++++++++++++++++++++++++++++++++++++++++++++++++++++++++++++++++++++++++++++++++++++++++++++++++++++++++++++++++",
"++++++++++++++++++++++++++++++++++++++++++++++++++++++++++++++++++++++++++++++++++++++++++++++++++++++++++++++++++++++++++++++++",
"++++++++++++++++++++++++++++++++++++++++++++++++++++++++++++++++++++++++++++++++++++++++++++++++++++++++++++++++++++++++++++++++",
"++++++++++++++++++++++++++++++++++++++++++++++++++++++++++++++++++++++++++++++++++++++++++++++++++++++++++++++++++++++++++++++++"
};
